<svg width="60" height="60" viewBox="0 0 60 60" fill="none" xmlns="http://www.w3.org/2000/svg">
<g clip-path="url(#clip0_3460_722449)">
<g clip-path="url(#clip1_3460_722449)">
<mask id="mask0_3460_722449" style="mask-type:alpha" maskUnits="userSpaceOnUse" x="0" y="0" width="60" height="60">
<path d="M0 30C0 19.499 0 14.2485 2.04363 10.2377C3.84126 6.70963 6.70963 3.84126 10.2377 2.04363C14.2485 0 19.499 0 30 0C40.501 0 45.7515 0 49.7624 2.04363C53.2904 3.84126 56.1588 6.70963 57.9564 10.2377C60 14.2485 60 19.499 60 30C60 40.501 60 45.7515 57.9564 49.7624C56.1588 53.2904 53.2904 56.1588 49.7624 57.9564C45.7515 60 40.501 60 30 60C19.499 60 14.2485 60 10.2377 57.9564C6.70963 56.1588 3.84126 53.2904 2.04363 49.7624C0 45.7515 0 40.501 0 30Z" fill="#FF3333"/>
</mask>
<g mask="url(#mask0_3460_722449)">
<path d="M0 30C0 19.499 0 14.2485 2.04363 10.2377C3.84126 6.70963 6.70963 3.84126 10.2377 2.04363C14.2485 0 19.499 0 30 0C40.501 0 45.7515 0 49.7624 2.04363C53.2904 3.84126 56.1588 6.70963 57.9564 10.2377C60 14.2485 60 19.499 60 30C60 40.501 60 45.7515 57.9564 49.7624C56.1588 53.2904 53.2904 56.1588 49.7624 57.9564C45.7515 60 40.501 60 30 60C19.499 60 14.2485 60 10.2377 57.9564C6.70963 56.1588 3.84126 53.2904 2.04363 49.7624C0 45.7515 0 40.501 0 30Z" fill="url(#paint0_linear_3460_722449)"/>
<path fill-rule="evenodd" clip-rule="evenodd" d="M53.6581 47.4463L51.8316 25.5277C51.494 21.4764 51.3252 19.4507 50.428 17.9175C49.638 16.5674 48.4615 15.4849 47.0505 14.8097C45.4481 14.043 43.4154 14.043 39.3499 14.043H20.6494C16.584 14.043 14.5513 14.043 12.9489 14.8097C11.5378 15.4849 10.3614 16.5674 9.57136 17.9175C8.67419 19.4507 8.50538 21.4764 8.16777 25.5277L6.34122 47.4463C5.94883 52.155 5.75264 54.5093 6.54858 56.3254C7.24789 57.9211 8.45952 59.2379 9.99163 60.0674C11.7354 61.0114 14.0979 61.0114 18.8229 61.0114H41.1765C45.9015 61.0114 48.2639 61.0114 50.0077 60.0674C51.5398 59.2379 52.7515 57.9211 53.4508 56.3254C54.2467 54.5093 54.0505 52.1549 53.6581 47.4463ZM22.1716 27.0896C22.1716 25.6485 21.0034 24.4803 19.5622 24.4803C18.1211 24.4803 16.9529 25.6485 16.9529 27.0896C16.9529 30.5499 18.3275 33.8684 20.7742 36.3151C23.2209 38.7618 26.5394 40.1364 29.9997 40.1364C33.4599 40.1364 36.7784 38.7618 39.2251 36.3151C41.6719 33.8684 43.0464 30.5499 43.0464 27.0896C43.0464 25.6485 41.8782 24.4803 40.4371 24.4803C38.996 24.4803 37.8277 25.6485 37.8277 27.0896C37.8277 29.1658 37.003 31.1569 35.5349 32.6249C34.0669 34.093 32.0758 34.9177 29.9997 34.9177C27.9235 34.9177 25.9324 34.093 24.4644 32.6249C22.9963 31.1569 22.1716 29.1658 22.1716 27.0896Z" fill="white"/>
<path d="M30 60C19.499 60 14.2485 60 10.2377 57.9564C6.70964 56.1587 3.84126 53.2904 2.04363 49.7623C0 45.7515 0 40.501 0 30C0 19.4989 0 14.2485 2.04363 10.2376C3.84126 6.70964 6.70964 3.84119 10.2377 2.04359C14.2485 -1.43051e-05 19.499 -1.43051e-05 30 -1.43051e-05C40.5011 -1.43051e-05 45.7515 -1.43051e-05 49.7624 2.04359C53.2904 3.84119 56.1588 6.70964 57.9564 10.2376C60 14.2485 60 19.4989 60 30C60 40.501 60 45.7515 57.9564 49.7623C56.1588 53.2904 53.2904 56.1587 49.7624 57.9564C45.7515 60 40.5011 60 30 60Z" fill="url(#paint1_linear_3460_722449)"/>
</g>
</g>
</g>
<defs>
<linearGradient id="paint0_linear_3460_722449" x1="51.5" y1="-15.5" x2="7.5" y2="71.5" gradientUnits="userSpaceOnUse">
<stop stop-color="#39DBDB"/>
<stop offset="1" stop-color="#45DCAF"/>
</linearGradient>
<linearGradient id="paint1_linear_3460_722449" x1="2.54737" y1="10.8205" x2="57.962" y2="49.5351" gradientUnits="userSpaceOnUse">
<stop stop-color="white" stop-opacity="0.3381"/>
<stop offset="0.5355" stop-color="white" stop-opacity="0"/>
<stop offset="1" stop-color="white" stop-opacity="0"/>
</linearGradient>
<clipPath id="clip0_3460_722449">
<rect width="60" height="60" fill="white"/>
</clipPath>
<clipPath id="clip1_3460_722449">
<rect width="60" height="60" fill="white"/>
</clipPath>
</defs>
</svg>
