<svg width="32" height="37" viewBox="0 0 32 37" fill="none" xmlns="http://www.w3.org/2000/svg">
<g clip-path="url(#clip0_3460_722598)">
<g clip-path="url(#clip1_3460_722598)">
<g clip-path="url(#clip2_3460_722598)">
<path d="M30.5893 16.367C30.5992 8.63512 24.3394 2.35918 16.6076 2.34926C8.87578 2.33934 2.59987 8.5992 2.58995 16.331C2.58003 24.0629 8.83986 30.3388 16.5717 30.3487C24.3035 30.3587 30.5794 24.0988 30.5893 16.367Z" fill="#A8E545" fill-opacity="0.15"/>
<path d="M4.12081 21.5273L28.3113 17.046L27.9079 14.8689C27.657 13.5141 27.5315 12.8367 27.172 12.3681C26.8557 11.9559 26.4171 11.6544 25.919 11.5068C25.3527 11.339 24.6753 11.4645 23.3205 11.7154L6.87096 14.7627C5.51617 15.0137 4.83877 15.1392 4.37015 15.4987C3.95794 15.815 3.65643 16.2536 3.50883 16.7517C3.34103 17.318 3.46652 17.9954 3.7175 19.3502L5.42039 28.5426C5.67137 29.8974 5.79686 30.5748 6.15638 31.0434C6.47262 31.4556 6.91124 31.7571 7.40938 31.9047C7.97568 32.0725 8.65308 31.947 10.0079 31.696L17.0231 30.3965M21.7046 32.0313L24.0631 31.0877C24.2687 31.0054 24.3715 30.9643 24.4639 30.9068C24.5458 30.8558 24.6215 30.7952 24.6893 30.7265C24.7657 30.6491 24.8284 30.5578 24.9539 30.3753L29.0509 24.4152C29.5951 23.6235 29.3945 22.5404 28.6028 21.9962C27.811 21.4519 26.728 21.6526 26.1837 22.4443L22.0867 28.4044C21.9613 28.5869 21.8985 28.6782 21.8536 28.7772C21.8137 28.8652 21.7843 28.9575 21.766 29.0523C21.7454 29.1591 21.7438 29.2698 21.7407 29.4913L21.7046 32.0313Z" stroke="black" stroke-width="2.4602" stroke-linecap="round" stroke-linejoin="round"/>
<path d="M4.12081 21.5273L28.3113 17.046L27.9079 14.8689C27.657 13.5141 27.5315 12.8367 27.172 12.3681C26.8557 11.9559 26.4171 11.6544 25.919 11.5068C25.3527 11.339 24.6753 11.4645 23.3205 11.7154L6.87096 14.7627C5.51617 15.0137 4.83877 15.1392 4.37015 15.4987C3.95794 15.815 3.65643 16.2536 3.50883 16.7517C3.34103 17.318 3.46652 17.9954 3.7175 19.3502L5.42039 28.5426C5.67137 29.8974 5.79686 30.5748 6.15638 31.0434C6.47262 31.4556 6.91124 31.7571 7.40938 31.9047C7.97568 32.0725 8.65308 31.947 10.0079 31.696L17.0231 30.3965M21.7046 32.0313L24.0631 31.0877C24.2687 31.0054 24.3715 30.9643 24.4639 30.9068C24.5458 30.8558 24.6215 30.7952 24.6893 30.7265C24.7657 30.6491 24.8284 30.5578 24.9539 30.3753L29.0509 24.4152C29.5951 23.6235 29.3945 22.5404 28.6028 21.9962C27.811 21.4519 26.728 21.6526 26.1837 22.4443L22.0867 28.4044C21.9613 28.5869 21.8985 28.6782 21.8536 28.7772C21.8137 28.8652 21.7843 28.9575 21.766 29.0523C21.7454 29.1591 21.7438 29.2698 21.7407 29.4913L21.7046 32.0313Z" stroke="#ABE705" stroke-width="2.4602" stroke-linecap="round" stroke-linejoin="round"/>
</g>
</g>
</g>
<defs>
<clipPath id="clip0_3460_722598">
<rect width="29" height="34.0005" fill="white" transform="translate(1.729 1.35083) rotate(0.0735108)"/>
</clipPath>
<clipPath id="clip1_3460_722598">
<rect width="28.9979" height="34.0005" fill="white" transform="translate(1.729 1.35083) rotate(0.0735108)"/>
</clipPath>
<clipPath id="clip2_3460_722598">
<rect width="29" height="34" fill="white" transform="translate(1.729 1.35083) rotate(0.0735108)"/>
</clipPath>
</defs>
</svg>
