<svg width="60" height="60" viewBox="0 0 60 60" fill="none" xmlns="http://www.w3.org/2000/svg">
<g clip-path="url(#clip0_3460_722409)">
<g clip-path="url(#clip1_3460_722409)">
<mask id="mask0_3460_722409" style="mask-type:alpha" maskUnits="userSpaceOnUse" x="0" y="0" width="60" height="60">
<path d="M0 30C0 19.499 0 14.2485 2.04363 10.2377C3.84126 6.70963 6.70963 3.84126 10.2377 2.04363C14.2485 0 19.499 0 30 0C40.501 0 45.7515 0 49.7624 2.04363C53.2904 3.84126 56.1588 6.70963 57.9564 10.2377C60 14.2485 60 19.499 60 30C60 40.501 60 45.7515 57.9564 49.7624C56.1588 53.2904 53.2904 56.1588 49.7624 57.9564C45.7515 60 40.501 60 30 60C19.499 60 14.2485 60 10.2377 57.9564C6.70963 56.1588 3.84126 53.2904 2.04363 49.7624C0 45.7515 0 40.501 0 30Z" fill="#FF3333"/>
</mask>
<g mask="url(#mask0_3460_722409)">
<path d="M0 30C0 19.499 0 14.2485 2.04363 10.2377C3.84126 6.70963 6.70963 3.84126 10.2377 2.04363C14.2485 0 19.499 0 30 0C40.501 0 45.7515 0 49.7624 2.04363C53.2904 3.84126 56.1588 6.70963 57.9564 10.2377C60 14.2485 60 19.499 60 30C60 40.501 60 45.7515 57.9564 49.7624C56.1588 53.2904 53.2904 56.1588 49.7624 57.9564C45.7515 60 40.501 60 30 60C19.499 60 14.2485 60 10.2377 57.9564C6.70963 56.1588 3.84126 53.2904 2.04363 49.7624C0 45.7515 0 40.501 0 30Z" fill="#012B5B"/>
<path d="M48.2 24.4H40.4V21.8C40.4 19.7313 39.5782 17.7474 38.1154 16.2846C36.6526 14.8218 34.6687 14 32.6 14H27.4C25.3313 14 23.3473 14.8218 21.8846 16.2846C20.4218 17.7474 19.6 19.7313 19.6 21.8V24.4H11.8C9.73131 24.4 7.74735 25.2218 6.28457 26.6846C4.82178 28.1474 4 30.1313 4 32.2V55.6C4 57.6687 4.82178 59.6527 6.28457 61.1154C7.74735 62.5782 9.73131 63.4 11.8 63.4H48.2C50.2687 63.4 52.2526 62.5782 53.7154 61.1154C55.1782 59.6527 56 57.6687 56 55.6V32.2C56 30.1313 55.1782 28.1474 53.7154 26.6846C52.2526 25.2218 50.2687 24.4 48.2 24.4ZM24.8 21.8C24.8 21.1104 25.0739 20.4491 25.5615 19.9615C26.0491 19.4739 26.7104 19.2 27.4 19.2H32.6C33.2896 19.2 33.9509 19.4739 34.4385 19.9615C34.9261 20.4491 35.2 21.1104 35.2 21.8V24.4H24.8V21.8ZM50.8 55.6C50.8 56.2896 50.5261 56.9509 50.0385 57.4385C49.5509 57.9261 48.8896 58.2 48.2 58.2H11.8C11.1104 58.2 10.4491 57.9261 9.96152 57.4385C9.47393 56.9509 9.2 56.2896 9.2 55.6V41.3C15.8203 43.9264 22.8778 45.2761 30 45.278C37.122 45.2736 44.179 43.924 50.8 41.3V55.6ZM50.8 35.606C44.2438 38.4862 37.1609 39.9734 30 39.9734C22.8391 39.9734 15.7562 38.4862 9.2 35.606V32.2C9.2 31.5104 9.47393 30.8491 9.96152 30.3615C10.4491 29.8739 11.1104 29.6 11.8 29.6H48.2C48.8896 29.6 49.5509 29.8739 50.0385 30.3615C50.5261 30.8491 50.8 31.5104 50.8 32.2V35.606Z" fill="white"/>
<path d="M50.8 55.6C50.8 56.2896 50.5261 56.9509 50.0385 57.4385C49.5509 57.9261 48.8896 58.2 48.2 58.2H11.8C11.1104 58.2 10.4491 57.9261 9.96152 57.4385C9.47393 56.9509 9.2 56.2896 9.2 55.6V41.3C15.8203 43.9264 22.8778 45.2761 30 45.278C37.122 45.2736 44.179 43.924 50.8 41.3V55.6Z" fill="white"/>
<path d="M30 60C19.499 60 14.2485 60 10.2377 57.9564C6.70964 56.1587 3.84126 53.2904 2.04363 49.7623C0 45.7515 0 40.501 0 30C0 19.4989 0 14.2485 2.04363 10.2376C3.84126 6.70964 6.70964 3.84119 10.2377 2.04359C14.2485 -1.43051e-05 19.499 -1.43051e-05 30 -1.43051e-05C40.5011 -1.43051e-05 45.7515 -1.43051e-05 49.7624 2.04359C53.2904 3.84119 56.1588 6.70964 57.9564 10.2376C60 14.2485 60 19.4989 60 30C60 40.501 60 45.7515 57.9564 49.7623C56.1588 53.2904 53.2904 56.1587 49.7624 57.9564C45.7515 60 40.5011 60 30 60Z" fill="url(#paint0_linear_3460_722409)"/>
</g>
</g>
</g>
<defs>
<linearGradient id="paint0_linear_3460_722409" x1="2.54737" y1="10.8205" x2="57.962" y2="49.5351" gradientUnits="userSpaceOnUse">
<stop stop-color="white" stop-opacity="0.3381"/>
<stop offset="0.5355" stop-color="white" stop-opacity="0"/>
<stop offset="1" stop-color="white" stop-opacity="0"/>
</linearGradient>
<clipPath id="clip0_3460_722409">
<rect width="60" height="60" fill="white"/>
</clipPath>
<clipPath id="clip1_3460_722409">
<rect width="60" height="60" fill="white"/>
</clipPath>
</defs>
</svg>
