<svg width="60" height="60" viewBox="0 0 60 60" fill="none" xmlns="http://www.w3.org/2000/svg">
<g clip-path="url(#clip0_3460_722347)">
<g clip-path="url(#clip1_3460_722347)">
<mask id="mask0_3460_722347" style="mask-type:alpha" maskUnits="userSpaceOnUse" x="0" y="0" width="60" height="60">
<path d="M0 30C0 19.499 0 14.2485 2.04363 10.2377C3.84126 6.70963 6.70963 3.84126 10.2377 2.04363C14.2485 0 19.499 0 30 0C40.501 0 45.7515 0 49.7624 2.04363C53.2904 3.84126 56.1588 6.70963 57.9564 10.2377C60 14.2485 60 19.499 60 30C60 40.501 60 45.7515 57.9564 49.7624C56.1588 53.2904 53.2904 56.1588 49.7624 57.9564C45.7515 60 40.501 60 30 60C19.499 60 14.2485 60 10.2377 57.9564C6.70963 56.1588 3.84126 53.2904 2.04363 49.7624C0 45.7515 0 40.501 0 30Z" fill="#FF3333"/>
</mask>
<g mask="url(#mask0_3460_722347)">
<path d="M30 60C19.499 60 14.2485 60 10.2377 57.9564C6.70964 56.1587 3.84126 53.2904 2.04363 49.7623C0 45.7515 0 40.501 0 30C0 19.4989 0 14.2485 2.04363 10.2376C3.84126 6.70964 6.70964 3.84119 10.2377 2.04359C14.2485 -1.43051e-05 19.499 -1.43051e-05 30 -1.43051e-05C40.5011 -1.43051e-05 45.7515 -1.43051e-05 49.7624 2.04359C53.2904 3.84119 56.1588 6.70964 57.9564 10.2376C60 14.2485 60 19.4989 60 30C60 40.501 60 45.7515 57.9564 49.7623C56.1588 53.2904 53.2904 56.1587 49.7624 57.9564C45.7515 60 40.5011 60 30 60Z" fill="url(#paint0_linear_3460_722347)"/>
<path d="M13.6417 16.8965C16.4435 12.8181 21.5242 12.4342 25.3329 15.0477C27.3246 10.88 31.8628 8.72147 36.3822 10.8032C40.9016 12.8849 42.7504 17.9882 40.8807 22.4249C40.6028 23.0844 40.2001 23.8934 39.716 24.7928C39.5866 25.0332 39.2438 25.0412 39.0881 24.817C37.1815 22.0719 33.9613 20.4756 30.1973 21.174C24.8369 22.1685 21.3709 27.0048 22.0955 32.2598C22.1517 32.6671 21.7217 32.9781 21.3622 32.7784C19.013 31.4736 16.8299 30.175 15.5567 29.2104C11.7192 26.303 10.8398 20.9749 13.6417 16.8965Z" fill="white"/>
<path d="M40.0141 29.5226C39.7764 28.2454 39.2999 27.0646 38.6295 26.0473C38.59 25.9874 38.5498 25.928 38.509 25.8693C36.7786 23.3778 33.856 21.929 30.4398 22.5629C25.5747 23.4656 22.429 27.8549 23.0867 32.6243C23.1486 33.0733 23.2433 33.5932 23.3641 34.1666L23.3722 34.205C24.2883 38.5298 26.6668 45.8523 27.6581 48.8331C27.8118 49.2952 27.8887 49.5263 28.0408 49.6874C28.1734 49.8278 28.3496 49.9295 28.5374 49.9741C28.753 50.0253 28.9916 49.9763 29.4686 49.8784C32.9645 49.1605 42.2089 47.1912 45.7916 45.7329C50.2508 43.9178 52.5521 39.0019 50.8284 34.3342C49.1047 29.6666 44.3694 27.9839 40.0141 29.5226Z" fill="white"/>
<path d="M0 30C0 19.499 0 14.2485 2.04363 10.2377C3.84126 6.70963 6.70963 3.84126 10.2377 2.04363C14.2485 0 19.499 0 30 0C40.501 0 45.7515 0 49.7624 2.04363C53.2904 3.84126 56.1588 6.70963 57.9564 10.2377C60 14.2485 60 19.499 60 30C60 40.501 60 45.7515 57.9564 49.7624C56.1588 53.2904 53.2904 56.1588 49.7624 57.9564C45.7515 60 40.501 60 30 60C19.499 60 14.2485 60 10.2377 57.9564C6.70963 56.1588 3.84126 53.2904 2.04363 49.7624C0 45.7515 0 40.501 0 30Z" fill="url(#paint1_linear_3460_722347)"/>
</g>
</g>
</g>
<defs>
<linearGradient id="paint0_linear_3460_722347" x1="-59.7052" y1="-14.2188" x2="8.84284" y2="66.5791" gradientUnits="userSpaceOnUse">
<stop stop-color="#FFDA3E"/>
<stop offset="1" stop-color="#FC4714"/>
</linearGradient>
<linearGradient id="paint1_linear_3460_722347" x1="49.1794" y1="2.54737" x2="10.4649" y2="57.9619" gradientUnits="userSpaceOnUse">
<stop stop-color="white" stop-opacity="0.3381"/>
<stop offset="0.5355" stop-color="white" stop-opacity="0"/>
<stop offset="1" stop-color="white" stop-opacity="0"/>
</linearGradient>
<clipPath id="clip0_3460_722347">
<rect width="60" height="60" fill="white"/>
</clipPath>
<clipPath id="clip1_3460_722347">
<rect width="60" height="60" fill="white"/>
</clipPath>
</defs>
</svg>
