<svg width="20" height="21" viewBox="0 0 20 21" fill="none" xmlns="http://www.w3.org/2000/svg">
<path fill-rule="evenodd" clip-rule="evenodd" d="M19.998 9.8848C19.89 4.5878 15.667 0.301797 10.395 0.0977969C10.442 4.2068 10.712 6.5078 12.243 8.0378C13.751 9.5478 16.005 9.8318 19.998 9.8848ZM9.79795 0.0917969C4.43495 0.197797 0.107953 4.5248 0.00195312 9.8878C4.11495 9.8398 6.41695 9.5708 7.94895 8.0388C9.48095 6.5068 9.74995 4.2048 9.79795 0.0917969ZM0.00795313 10.4848C0.211953 15.7568 4.49795 19.9818 9.79495 20.0878C9.74195 16.0948 9.45695 13.8408 7.94895 12.3328C6.41695 10.8018 4.11695 10.5328 0.00795313 10.4848ZM10.398 20.0818C12.9106 19.9817 15.2933 18.9386 17.0713 17.1604C18.8493 15.3822 19.8921 12.9994 19.992 10.4868C16.003 10.5408 13.751 10.8258 12.243 12.3328C10.736 13.8408 10.451 16.0928 10.397 20.0828L10.398 20.0818Z" fill="black"/>
</svg>
