<svg width="20" height="21" viewBox="0 0 20 21" fill="none" xmlns="http://www.w3.org/2000/svg">
<path fill-rule="evenodd" clip-rule="evenodd" d="M1.406 1.49584C0 2.90184 0 5.16484 0 9.68984V10.4898C0 15.0148 0 17.2778 1.406 18.6838C2.812 20.0898 5.075 20.0898 9.6 20.0898H10.4C14.925 20.0898 17.188 20.0898 18.594 18.6838C20 17.2778 20 15.0148 20 10.4898V9.68984C20 5.16484 20 2.90184 18.594 1.49584C17.188 0.0898438 14.925 0.0898438 10.4 0.0898438H9.6C5.075 0.0898438 2.812 0.0898438 1.406 1.49584ZM3.375 6.17284C3.483 11.3728 6.083 14.4978 10.642 14.4978H10.9V11.5228C12.575 11.6898 13.842 12.9148 14.35 14.4978H16.717C16.067 12.1318 14.358 10.8228 13.292 10.3228C14.358 9.70684 15.858 8.20684 16.217 6.17284H14.067C13.6 7.82284 12.217 9.32284 10.9 9.46484V6.17284H8.75V11.9398C7.417 11.6068 5.733 9.98984 5.658 6.17284H3.375Z" fill="black"/>
</svg>
