<svg width="60" height="60" viewBox="0 0 60 60" fill="none" xmlns="http://www.w3.org/2000/svg">
<g clip-path="url(#clip0_3460_722431)">
<g clip-path="url(#clip1_3460_722431)">
<mask id="mask0_3460_722431" style="mask-type:alpha" maskUnits="userSpaceOnUse" x="0" y="0" width="60" height="60">
<path d="M0 30C0 19.499 0 14.2485 2.04363 10.2377C3.84126 6.70963 6.70963 3.84126 10.2377 2.04363C14.2485 0 19.499 0 30 0C40.501 0 45.7515 0 49.7624 2.04363C53.2904 3.84126 56.1588 6.70963 57.9564 10.2377C60 14.2485 60 19.499 60 30C60 40.501 60 45.7515 57.9564 49.7624C56.1588 53.2904 53.2904 56.1588 49.7624 57.9564C45.7515 60 40.501 60 30 60C19.499 60 14.2485 60 10.2377 57.9564C6.70963 56.1588 3.84126 53.2904 2.04363 49.7624C0 45.7515 0 40.501 0 30Z" fill="#FF3333"/>
</mask>
<g mask="url(#mask0_3460_722431)">
<path d="M0 30C0 19.499 0 14.2485 2.04363 10.2377C3.84126 6.70963 6.70963 3.84126 10.2377 2.04363C14.2485 0 19.499 0 30 0C40.501 0 45.7515 0 49.7624 2.04363C53.2904 3.84126 56.1588 6.70963 57.9564 10.2377C60 14.2485 60 19.499 60 30C60 40.501 60 45.7515 57.9564 49.7624C56.1588 53.2904 53.2904 56.1588 49.7624 57.9564C45.7515 60 40.501 60 30 60C19.499 60 14.2485 60 10.2377 57.9564C6.70963 56.1588 3.84126 53.2904 2.04363 49.7624C0 45.7515 0 40.501 0 30Z" fill="url(#paint0_linear_3460_722431)"/>
<path fill-rule="evenodd" clip-rule="evenodd" d="M46.4264 27.2943L30.1245 10.9924C29.3892 10.2571 29.0215 9.88944 28.5925 9.62651C28.2121 9.39341 27.7974 9.22162 27.3636 9.11747C26.8743 9 26.3543 9 25.3144 9H19.258C18.2181 9 17.6981 9 17.2088 9.11747C16.775 9.22162 16.3603 9.3934 15.9799 9.62651C15.5508 9.88944 15.1832 10.2571 14.4479 10.9924L10.9924 14.4479C10.2571 15.1832 9.88944 15.5508 9.62651 15.9799C9.3934 16.3603 9.22162 16.775 9.11747 17.2088C9 17.6981 9 18.2181 9 19.258V25.3144C9 26.3543 9 26.8743 9.11747 27.3636C9.22162 27.7974 9.3934 28.2121 9.62651 28.5925C9.88944 29.0215 10.2571 29.3892 10.9924 30.1245L27.2943 46.4264C29.8199 48.952 31.0826 50.2147 32.5388 50.6879C33.8196 51.104 35.1993 51.104 36.4802 50.6879C37.9363 50.2147 39.1991 48.952 41.7247 46.4264L46.4264 41.7247C48.952 39.1991 50.2147 37.9363 50.6879 36.4802C51.104 35.1993 51.104 33.8196 50.6879 32.5388C50.2147 31.0826 48.9519 29.8198 46.4264 27.2943ZM21.7547 18.5661C19.9937 18.5661 18.5661 19.9937 18.5661 21.7547C18.5661 23.5158 19.9937 24.9434 21.7547 24.9434C23.5158 24.9434 24.9434 23.5158 24.9434 21.7547C24.9434 19.9937 23.5158 18.5661 21.7547 18.5661Z" fill="white"/>
<path d="M30 60C19.499 60 14.2485 60 10.2377 57.9564C6.70964 56.1587 3.84126 53.2904 2.04363 49.7623C0 45.7515 0 40.501 0 30C0 19.4989 0 14.2485 2.04363 10.2376C3.84126 6.70964 6.70964 3.84119 10.2377 2.04359C14.2485 -1.43051e-05 19.499 -1.43051e-05 30 -1.43051e-05C40.5011 -1.43051e-05 45.7515 -1.43051e-05 49.7624 2.04359C53.2904 3.84119 56.1588 6.70964 57.9564 10.2376C60 14.2485 60 19.4989 60 30C60 40.501 60 45.7515 57.9564 49.7623C56.1588 53.2904 53.2904 56.1587 49.7624 57.9564C45.7515 60 40.5011 60 30 60Z" fill="url(#paint1_linear_3460_722431)"/>
</g>
</g>
</g>
<defs>
<linearGradient id="paint0_linear_3460_722431" x1="22.5" y1="-16" x2="54.5" y2="79" gradientUnits="userSpaceOnUse">
<stop stop-color="#F03C3C"/>
<stop offset="1" stop-color="#E02D2D"/>
</linearGradient>
<linearGradient id="paint1_linear_3460_722431" x1="2.54737" y1="10.8205" x2="57.962" y2="49.5351" gradientUnits="userSpaceOnUse">
<stop stop-color="white" stop-opacity="0.3381"/>
<stop offset="0.5355" stop-color="white" stop-opacity="0"/>
<stop offset="1" stop-color="white" stop-opacity="0"/>
</linearGradient>
<clipPath id="clip0_3460_722431">
<rect width="60" height="60" fill="white"/>
</clipPath>
<clipPath id="clip1_3460_722431">
<rect width="60" height="60" fill="white"/>
</clipPath>
</defs>
</svg>
