<svg width="107" height="36" viewBox="0 0 107 36" fill="none" xmlns="http://www.w3.org/2000/svg">
<path d="M103.316 27.1487C101.647 27.1487 100.296 25.8376 100.296 24.2087C100.296 22.5797 101.647 21.2288 103.316 21.2288C104.945 21.2288 106.296 22.5797 106.296 24.2087C106.296 25.8376 104.945 27.1487 103.316 27.1487Z" fill="#131314"/>
<path d="M20.1961 26.6642V7.27558H24.6459V9.93755H24.7254C26.3146 8.03047 28.6587 6.99747 31.2015 6.99747C35.4527 6.99747 38.3133 9.42105 38.3133 15.2615V26.6642H33.8635V16.4137C33.8635 12.3214 32.314 11.0103 29.652 11.0103C26.6325 11.0103 24.6459 13.116 24.6459 16.9302V26.6642H20.1961Z" fill="#131314"/>
<path d="M66.2892 27.9511C60.9255 27.9511 56.9127 24.0178 56.9127 18.0184C56.9127 12.178 60.9255 7.96651 66.2495 7.96651C68.7128 7.96651 70.8583 8.88032 72.2488 10.6285L72.3283 10.5887V8.24463H76.7782V27.6333H72.5269V25.0905L72.4475 25.0508C71.0569 26.9181 68.9909 27.9511 66.2892 27.9511ZM67.0044 23.8986C70.0239 23.8986 72.5269 21.5545 72.5269 18.0582C72.5269 14.6016 70.1828 11.9793 67.0044 11.9793C63.9054 11.9793 61.442 14.3235 61.442 18.0582C61.442 21.475 63.7067 23.8986 67.0044 23.8986Z" fill="#131314"/>
<path d="M78.2606 35.5V8.24463H82.7105V10.549H82.7899C84.2202 8.88032 86.3657 7.96651 88.9085 7.96651C94.2721 7.96651 98.285 12.178 98.285 18.0184C98.285 24.0178 94.2721 27.9511 88.8687 27.9511C86.2465 27.9511 84.2202 26.9976 82.7899 25.2494L82.7105 25.2892V35.5H78.2606ZM88.1933 23.8986C91.4512 23.8986 93.7556 21.475 93.7556 18.0582C93.7556 14.3235 91.2526 11.9793 88.1536 11.9793C84.8162 11.9793 82.5118 14.6016 82.5118 18.0582C82.5118 21.5545 85.0148 23.8986 88.1933 23.8986Z" fill="#131314"/>
<path d="M44.5761 7.76784H40.2154V27.1487H44.5761V7.76784Z" fill="#131314"/>
<path d="M59.5963 0.984523H40.2154V5.34523H49.9058V27.1487H54.7511V5.34523H59.5963V0.984523Z" fill="#131314"/>
<path d="M0 19.6386V0.5H5.02801V18.5841C4.92837 20.8757 6.75935 22.788 9.05316 22.788C11.2783 22.788 13.0821 20.9842 13.0821 18.7591V0.5H18.8964V19.6386C18.8964 24.8567 14.2713 27.1487 9.05316 27.1487C3.83507 27.1487 0 24.8567 0 19.6386Z" fill="#131314"/>
</svg>
