<svg width="60" height="60" viewBox="0 0 60 60" fill="none" xmlns="http://www.w3.org/2000/svg">
<g clip-path="url(#clip0_3460_722365)">
<g clip-path="url(#clip1_3460_722365)">
<g clip-path="url(#clip2_3460_722365)">
<mask id="mask0_3460_722365" style="mask-type:alpha" maskUnits="userSpaceOnUse" x="0" y="0" width="60" height="60">
<path d="M0 30C0 19.499 0 14.2485 2.04363 10.2377C3.84126 6.70963 6.70963 3.84126 10.2377 2.04363C14.2485 0 19.499 0 30 0C40.501 0 45.7515 0 49.7624 2.04363C53.2904 3.84126 56.1588 6.70963 57.9564 10.2377C60 14.2485 60 19.499 60 30C60 40.501 60 45.7515 57.9564 49.7624C56.1588 53.2904 53.2904 56.1588 49.7624 57.9564C45.7515 60 40.501 60 30 60C19.499 60 14.2485 60 10.2377 57.9564C6.70963 56.1588 3.84126 53.2904 2.04363 49.7624C0 45.7515 0 40.501 0 30Z" fill="#FF3333"/>
</mask>
<g mask="url(#mask0_3460_722365)">
<path d="M0 30C0 19.499 0 14.2485 2.04363 10.2377C3.84126 6.70963 6.70963 3.84126 10.2377 2.04363C14.2485 0 19.499 0 30 0C40.501 0 45.7515 0 49.7624 2.04363C53.2904 3.84126 56.1588 6.70963 57.9564 10.2377C60 14.2485 60 19.499 60 30C60 40.501 60 45.7515 57.9564 49.7624C56.1588 53.2904 53.2904 56.1588 49.7624 57.9564C45.7515 60 40.501 60 30 60C19.499 60 14.2485 60 10.2377 57.9564C6.70963 56.1588 3.84126 53.2904 2.04363 49.7624C0 45.7515 0 40.501 0 30Z" fill="#367AFE"/>
<path d="M41.6056 32.1656C40.3411 36.8848 37.0441 40.2308 33.5441 40.9218L26.3285 67.8507L20.996 66.4219L28.2116 39.493C25.526 37.1445 24.3437 32.5984 25.6082 27.8791C27.2423 21.8873 32.1224 17.9654 36.5217 19.1441C40.9476 20.3301 43.213 26.1666 41.6056 32.1656ZM47.1866 22.0018L34.3272 69.994L39.6596 71.4228L45.3749 50.093L50.7074 51.5218L54.9939 35.5244C56.2513 30.8318 54.5454 23.9736 47.1866 22.0018ZM23.9371 15.7721C22.8706 15.4863 21.7888 16.1109 21.503 17.1774L19.1597 25.9227L16.9201 25.3226L19.2634 16.5773C19.5491 15.5108 18.9246 14.429 17.8581 14.1432C16.7916 13.8575 15.7098 14.4821 15.424 15.5486L13.0807 24.2938L10.8411 23.6937L13.1844 14.9484C13.4701 13.882 12.8456 12.8001 11.7791 12.5144C10.7126 12.2286 9.63076 12.8532 9.345 13.9197L5.57289 27.9974C4.78703 30.9302 6.54367 33.9728 9.47652 34.7587L2.33237 61.421L7.66484 62.8498L14.809 36.1875C17.7418 36.9734 20.7844 35.2167 21.5703 32.2839L25.3424 18.2062C25.6282 17.1397 25.0036 16.0579 23.9371 15.7721Z" fill="white"/>
<path d="M30 60C19.499 60 14.2485 60 10.2377 57.9564C6.70964 56.1587 3.84126 53.2904 2.04363 49.7623C0 45.7515 0 40.501 0 30C0 19.4989 0 14.2485 2.04363 10.2376C3.84126 6.70964 6.70964 3.84119 10.2377 2.04359C14.2485 -1.43051e-05 19.499 -1.43051e-05 30 -1.43051e-05C40.5011 -1.43051e-05 45.7515 -1.43051e-05 49.7624 2.04359C53.2904 3.84119 56.1588 6.70964 57.9564 10.2376C60 14.2485 60 19.4989 60 30C60 40.501 60 45.7515 57.9564 49.7623C56.1588 53.2904 53.2904 56.1587 49.7624 57.9564C45.7515 60 40.5011 60 30 60Z" fill="url(#paint0_linear_3460_722365)"/>
</g>
</g>
</g>
</g>
<defs>
<linearGradient id="paint0_linear_3460_722365" x1="2.54737" y1="10.8205" x2="57.962" y2="49.5351" gradientUnits="userSpaceOnUse">
<stop stop-color="white" stop-opacity="0.3381"/>
<stop offset="0.5355" stop-color="white" stop-opacity="0"/>
<stop offset="1" stop-color="white" stop-opacity="0"/>
</linearGradient>
<clipPath id="clip0_3460_722365">
<rect width="60" height="60" fill="white"/>
</clipPath>
<clipPath id="clip1_3460_722365">
<rect width="60" height="60" fill="white"/>
</clipPath>
<clipPath id="clip2_3460_722365">
<rect width="60" height="60" fill="white"/>
</clipPath>
</defs>
</svg>
