<svg width="60" height="60" viewBox="0 0 60 60" fill="none" xmlns="http://www.w3.org/2000/svg">
<g clip-path="url(#clip0_3460_722329)">
<g clip-path="url(#clip1_3460_722329)">
<mask id="mask0_3460_722329" style="mask-type:alpha" maskUnits="userSpaceOnUse" x="0" y="0" width="60" height="60">
<path d="M0 30C0 19.499 0 14.2485 2.04363 10.2377C3.84126 6.70963 6.70963 3.84126 10.2377 2.04363C14.2485 0 19.499 0 30 0C40.501 0 45.7515 0 49.7624 2.04363C53.2904 3.84126 56.1588 6.70963 57.9564 10.2377C60 14.2485 60 19.499 60 30C60 40.501 60 45.7515 57.9564 49.7624C56.1588 53.2904 53.2904 56.1588 49.7624 57.9564C45.7515 60 40.501 60 30 60C19.499 60 14.2485 60 10.2377 57.9564C6.70963 56.1588 3.84126 53.2904 2.04363 49.7624C0 45.7515 0 40.501 0 30Z" fill="#FF3333"/>
</mask>
<g mask="url(#mask0_3460_722329)">
<path d="M0 30C0 19.499 0 14.2485 2.04363 10.2377C3.84126 6.70963 6.70963 3.84126 10.2377 2.04363C14.2485 0 19.499 0 30 0C40.501 0 45.7515 0 49.7624 2.04363C53.2904 3.84126 56.1588 6.70963 57.9564 10.2377C60 14.2485 60 19.499 60 30C60 40.501 60 45.7515 57.9564 49.7624C56.1588 53.2904 53.2904 56.1588 49.7624 57.9564C45.7515 60 40.501 60 30 60C19.499 60 14.2485 60 10.2377 57.9564C6.70963 56.1588 3.84126 53.2904 2.04363 49.7624C0 45.7515 0 40.501 0 30Z" fill="#27C80C"/>
<path d="M30 60C19.499 60 14.2485 60 10.2377 57.9564C6.70964 56.1587 3.84126 53.2904 2.04363 49.7623C0 45.7515 0 40.501 0 30C0 19.4989 0 14.2485 2.04363 10.2376C3.84126 6.70964 6.70964 3.84119 10.2377 2.04359C14.2485 -1.43051e-05 19.499 -1.43051e-05 30 -1.43051e-05C40.5011 -1.43051e-05 45.7515 -1.43051e-05 49.7624 2.04359C53.2904 3.84119 56.1588 6.70964 57.9564 10.2376C60 14.2485 60 19.4989 60 30C60 40.501 60 45.7515 57.9564 49.7623C56.1588 53.2904 53.2904 56.1587 49.7624 57.9564C45.7515 60 40.5011 60 30 60Z" fill="url(#paint0_linear_3460_722329)"/>
<path fill-rule="evenodd" clip-rule="evenodd" d="M19.4475 18.4495C20.861 18.8861 22.2157 19.8416 23.2574 21.1537C24.2986 22.4653 24.9191 23.9976 25.0089 25.4696C25.0984 26.9367 24.6512 28.51 23.3386 29.5197C22.033 30.5242 20.3958 30.5668 18.9927 30.1334C17.5792 29.6968 16.2245 28.7413 15.1828 27.4292C14.1416 26.1176 13.521 24.5853 13.4313 23.1132C13.3418 21.6462 13.789 20.0729 15.1015 19.0631C16.4072 18.0587 18.0444 18.0161 19.4475 18.4495ZM18.4726 21.6058C17.7566 21.3847 17.3255 21.5201 17.1158 21.6814C16.9131 21.8374 16.685 22.1968 16.7286 22.9122C16.7719 23.6225 17.0929 24.5223 17.77 25.3752C18.4468 26.2276 19.2619 26.7591 19.9675 26.9771C20.6835 27.1982 21.1147 27.0628 21.3243 26.9015C21.5271 26.7455 21.7552 26.386 21.7116 25.6707C21.6683 24.9604 21.3473 24.0606 20.6701 23.2077C19.9934 22.3553 19.1783 21.8237 18.4726 21.6058ZM29.3217 15.8373C29.1078 16.5441 29.0926 17.5171 29.4209 18.5548C29.7493 19.5932 30.3158 20.3624 30.8804 20.7956C31.4491 21.2317 31.8747 21.2436 32.1173 21.1627C32.3683 21.0791 32.7217 20.7974 32.9387 20.0802C33.1526 19.3733 33.1678 18.4003 32.8395 17.3626C32.5111 16.3243 31.9446 15.555 31.38 15.1219C30.8113 14.6857 30.3857 14.6738 30.1431 14.7547C29.8921 14.8383 29.5387 15.12 29.3217 15.8373ZM26.1598 14.8805C26.5852 13.4749 27.536 12.1414 29.0988 11.6207C30.6699 11.0972 32.2243 11.6062 33.3905 12.5007C34.5607 13.3983 35.4841 14.7696 35.9891 16.3663C36.4944 17.9635 36.529 19.621 36.1006 21.037C35.6752 22.4426 34.7244 23.7761 33.1616 24.2968C31.5905 24.8203 30.0361 24.3113 28.8699 23.4167C27.6997 22.5191 26.7763 21.1478 26.2713 19.5512C25.766 17.9539 25.7314 16.2964 26.1598 14.8805ZM16.3469 31.9209C17.7698 32.0277 19.2608 32.6431 20.5538 33.6472C21.8481 34.6522 22.8202 35.9499 23.3025 37.3022C23.7768 38.6317 23.8392 40.2472 22.8829 41.5563C21.9146 42.8817 20.3505 43.2832 18.9398 43.1773C17.5169 43.0705 16.026 42.4551 14.7329 41.451C13.4386 40.446 12.4665 39.1483 11.9842 37.796C11.5099 36.4665 11.4475 34.851 12.4039 33.5419C13.3721 32.2165 14.9362 31.815 16.3469 31.9209ZM16.0996 35.215C15.4099 35.1633 15.151 35.3815 15.0713 35.4906C14.9797 35.6159 14.843 35.978 15.0956 36.6862C15.3401 37.3716 15.8961 38.1718 16.759 38.8418C17.623 39.5128 18.5097 39.8323 19.1871 39.8832C19.8768 39.9349 20.1357 39.7167 20.2154 39.6076C20.307 39.4823 20.4437 39.1202 20.1911 38.412C19.9466 37.7266 19.3906 36.9264 18.5278 36.2564C17.6637 35.5854 16.777 35.2659 16.0996 35.215ZM41.9312 21.4801C41.5946 22.0702 41.3636 22.984 41.4367 24.0755C41.5097 25.1654 41.8622 26.0739 42.2937 26.6599C42.7395 27.2653 43.1162 27.3544 43.2713 27.3486C43.4063 27.3435 43.732 27.2509 44.0748 26.6501C44.4114 26.0601 44.6423 25.1463 44.5693 24.0548C44.4963 22.9649 44.1438 22.0564 43.7123 21.4704C43.2665 20.865 42.8898 20.7759 42.7346 20.7817C42.5996 20.7868 42.274 20.8794 41.9312 21.4801ZM39.062 19.843C39.763 18.6144 40.9705 17.5422 42.6107 17.4806C44.2308 17.4198 45.5352 18.3749 46.3723 19.5115C47.2237 20.6676 47.7559 22.1992 47.8653 23.8342C47.9747 25.4677 47.6512 27.0478 46.944 28.2872C46.243 29.5159 45.0354 30.5881 43.3952 30.6497C41.7752 30.7105 40.4708 29.7554 39.6337 28.6187C38.7823 27.4626 38.2501 25.9311 38.1407 24.2961C38.0313 22.6626 38.3548 21.0824 39.062 19.843ZM25.8514 32.9804C26.1721 31.1889 27.0307 29.4919 29.0523 28.417C31.0739 27.3421 32.961 27.5792 34.6255 28.3152C35.8657 28.8635 37.1065 29.7538 38.2266 30.5576C38.4804 30.7397 38.728 30.9174 38.968 31.0856C39.9567 31.7787 40.8176 32.2752 41.6251 32.7408C41.9248 32.9136 42.2171 33.0821 42.5058 33.2549C43.4783 33.8368 44.5809 34.5574 45.2077 35.7367C45.7093 36.6805 45.925 37.6322 45.8208 38.5647C45.7171 39.4922 45.3139 40.2476 44.8365 40.8334C43.9698 41.8967 42.7056 42.5673 42.0468 42.9168C42.023 42.9294 42 42.9416 41.9778 42.9534C41.2296 43.3512 40.6155 43.5461 40.0818 43.7155C40.0133 43.7372 39.946 43.7586 39.88 43.7799C39.3231 43.9595 38.6962 44.1786 37.7114 44.7022C36.7265 45.2259 36.1943 45.6231 35.734 45.9843C35.6794 46.0272 35.6241 46.071 35.5677 46.1157C35.1289 46.4634 34.6239 46.8635 33.8757 47.2613C33.8535 47.2731 33.8305 47.2854 33.8068 47.2981C33.1487 47.6488 31.8858 48.3219 30.5196 48.4458C29.767 48.5141 28.9153 48.4259 28.0883 47.9932C27.257 47.5582 26.5886 46.8471 26.0867 45.9035C25.4594 44.7244 25.4787 43.4074 25.54 42.2757C25.5583 41.9398 25.582 41.6032 25.6063 41.2581C25.6718 40.3284 25.7417 39.3369 25.7199 38.1297C25.7147 37.8367 25.7058 37.532 25.6968 37.2198C25.6568 35.8417 25.6125 34.3152 25.8514 32.9804ZM28.9962 36.9578C29.0058 37.3099 29.0158 37.6799 29.0228 38.0703C29.0474 39.4378 28.9622 40.6454 28.8946 41.6024C28.8726 41.9141 28.8525 42.1992 28.8386 42.4545C28.7763 43.6035 28.8512 44.0664 29.0031 44.3521C29.2536 44.8229 29.4837 44.995 29.6198 45.0662C29.7604 45.1398 29.9453 45.1809 30.2212 45.1559C30.8627 45.0977 31.5834 44.7388 32.3248 44.3446C32.7968 44.0936 33.0779 43.8719 33.5161 43.5261C33.5727 43.4815 33.6319 43.4347 33.6945 43.3856C34.2608 42.9412 34.9578 42.425 36.1605 41.7855C37.3632 41.146 38.1809 40.8569 38.866 40.6359C38.9417 40.6115 39.0136 40.5885 39.0823 40.5665C39.614 40.3966 39.9549 40.2876 40.4269 40.0366C41.1684 39.6424 41.8689 39.2456 42.2758 38.7463C42.4509 38.5315 42.5202 38.3553 42.5378 38.1976C42.5549 38.0449 42.5409 37.7579 42.2906 37.287C42.1387 37.0012 41.7968 36.6804 40.8095 36.0895C40.59 35.9582 40.3424 35.8155 40.0717 35.6594C39.2405 35.1803 38.1917 34.5757 37.0718 33.7906C36.7521 33.5665 36.4509 33.3513 36.1644 33.1464C35.0696 32.364 34.1871 31.7332 33.2897 31.3365C32.3009 30.8993 31.512 30.8506 30.6032 31.3338C29.6944 31.817 29.2937 32.4982 29.1032 33.5625C28.9303 34.5283 28.9597 35.6127 28.9962 36.9578Z" fill="white"/>
<path d="M41.4367 24.0755C41.3636 22.984 41.5946 22.0702 41.9312 21.4801C42.274 20.8794 42.5996 20.7868 42.7346 20.7817C42.8898 20.7759 43.2665 20.865 43.7123 21.4704C44.1438 22.0564 44.4963 22.9649 44.5693 24.0548C44.6423 25.1463 44.4114 26.0601 44.0748 26.6501C43.732 27.2509 43.4063 27.3435 43.2713 27.3486C43.1162 27.3544 42.7395 27.2653 42.2937 26.6599C41.8622 26.0739 41.5097 25.1654 41.4367 24.0755Z" fill="white"/>
<path d="M29.4209 18.5548C29.0926 17.5171 29.1078 16.5441 29.3217 15.8373C29.5387 15.12 29.8921 14.8383 30.1431 14.7547C30.3857 14.6738 30.8113 14.6857 31.38 15.1219C31.9446 15.555 32.5111 16.3243 32.8395 17.3626C33.1678 18.4003 33.1526 19.3733 32.9387 20.0802C32.7217 20.7974 32.3683 21.0791 32.1173 21.1627C31.8747 21.2436 31.4491 21.2317 30.8804 20.7956C30.3158 20.3624 29.7493 19.5932 29.4209 18.5548Z" fill="white"/>
<path d="M17.1158 21.6814C17.3255 21.5201 17.7566 21.3847 18.4726 21.6058C19.1783 21.8237 19.9934 22.3553 20.6701 23.2077C21.3473 24.0606 21.6683 24.9604 21.7116 25.6707C21.7552 26.386 21.5271 26.7455 21.3243 26.9015C21.1147 27.0628 20.6835 27.1982 19.9675 26.9771C19.2619 26.7591 18.4468 26.2276 17.77 25.3752C17.0929 24.5223 16.7719 23.6225 16.7286 22.9122C16.685 22.1968 16.9131 21.8374 17.1158 21.6814Z" fill="white"/>
<path d="M15.0713 35.4906C15.151 35.3815 15.4099 35.1633 16.0996 35.215C16.777 35.2659 17.6637 35.5854 18.5278 36.2564C19.3906 36.9264 19.9466 37.7266 20.1911 38.412C20.4437 39.1202 20.307 39.4823 20.2154 39.6076C20.1357 39.7167 19.8768 39.9349 19.1871 39.8832C18.5097 39.8323 17.623 39.5128 16.759 38.8418C15.8961 38.1718 15.3401 37.3716 15.0956 36.6862C14.843 35.978 14.9797 35.6159 15.0713 35.4906Z" fill="white"/>
<path d="M29.0228 38.0703C29.0158 37.6799 29.0058 37.3099 28.9962 36.9578C28.9597 35.6127 28.9303 34.5283 29.1032 33.5625C29.2937 32.4982 29.6944 31.817 30.6032 31.3338C31.512 30.8506 32.3009 30.8993 33.2897 31.3365C34.1871 31.7332 35.0696 32.364 36.1644 33.1464C36.4509 33.3513 36.7521 33.5665 37.0718 33.7906C38.1917 34.5757 39.2405 35.1803 40.0717 35.6594C40.3424 35.8155 40.59 35.9582 40.8095 36.0895C41.7968 36.6804 42.1387 37.0012 42.2906 37.287C42.5409 37.7579 42.5549 38.0449 42.5378 38.1976C42.5202 38.3553 42.4509 38.5315 42.2758 38.7463C41.8689 39.2456 41.1684 39.6424 40.4269 40.0366C39.9549 40.2876 39.614 40.3966 39.0823 40.5665C39.0136 40.5885 38.9417 40.6115 38.866 40.6359C38.1809 40.8569 37.3632 41.146 36.1605 41.7855C34.9578 42.425 34.2608 42.9412 33.6945 43.3856C33.6319 43.4347 33.5727 43.4815 33.5161 43.5261C33.0779 43.8719 32.7968 44.0936 32.3248 44.3446C31.5834 44.7388 30.8627 45.0977 30.2212 45.1559C29.9453 45.1809 29.7604 45.1398 29.6198 45.0662C29.4837 44.995 29.2536 44.8229 29.0031 44.3521C28.8512 44.0664 28.7763 43.6035 28.8386 42.4545C28.8525 42.1992 28.8726 41.9141 28.8946 41.6024C28.9622 40.6454 29.0474 39.4378 29.0228 38.0703Z" fill="white"/>
</g>
</g>
</g>
<defs>
<linearGradient id="paint0_linear_3460_722329" x1="2.54737" y1="10.8205" x2="57.962" y2="49.5351" gradientUnits="userSpaceOnUse">
<stop stop-color="white" stop-opacity="0.3381"/>
<stop offset="0.5355" stop-color="white" stop-opacity="0"/>
<stop offset="1" stop-color="white" stop-opacity="0"/>
</linearGradient>
<clipPath id="clip0_3460_722329">
<rect width="60" height="60" fill="white"/>
</clipPath>
<clipPath id="clip1_3460_722329">
<rect width="60" height="60" fill="white"/>
</clipPath>
</defs>
</svg>
