<svg width="60" height="60" viewBox="0 0 60 60" fill="none" xmlns="http://www.w3.org/2000/svg">
<g clip-path="url(#clip0_3460_722387)">
<g clip-path="url(#clip1_3460_722387)">
<mask id="mask0_3460_722387" style="mask-type:alpha" maskUnits="userSpaceOnUse" x="0" y="0" width="60" height="60">
<path d="M0 30C0 19.499 0 14.2485 2.04363 10.2377C3.84126 6.70963 6.70963 3.84126 10.2377 2.04363C14.2485 0 19.499 0 30 0C40.501 0 45.7515 0 49.7624 2.04363C53.2904 3.84126 56.1588 6.70963 57.9564 10.2377C60 14.2485 60 19.499 60 30C60 40.501 60 45.7515 57.9564 49.7624C56.1588 53.2904 53.2904 56.1588 49.7624 57.9564C45.7515 60 40.501 60 30 60C19.499 60 14.2485 60 10.2377 57.9564C6.70963 56.1588 3.84126 53.2904 2.04363 49.7624C0 45.7515 0 40.501 0 30Z" fill="#FF3333"/>
</mask>
<g mask="url(#mask0_3460_722387)">
<path d="M0 30C0 19.499 0 14.2485 2.04363 10.2377C3.84126 6.70963 6.70963 3.84126 10.2377 2.04363C14.2485 0 19.499 0 30 0C40.501 0 45.7515 0 49.7624 2.04363C53.2904 3.84126 56.1588 6.70963 57.9564 10.2377C60 14.2485 60 19.499 60 30C60 40.501 60 45.7515 57.9564 49.7624C56.1588 53.2904 53.2904 56.1588 49.7624 57.9564C45.7515 60 40.501 60 30 60C19.499 60 14.2485 60 10.2377 57.9564C6.70963 56.1588 3.84126 53.2904 2.04363 49.7624C0 45.7515 0 40.501 0 30Z" fill="url(#paint0_linear_3460_722387)"/>
<path d="M36.4378 35.8404V22.944C36.4378 20.2684 35.7243 17.8426 34.2973 15.6664C32.906 13.4903 31.0687 12.4022 28.7856 12.4022C27.751 12.4022 26.877 12.7411 26.1635 13.4189C25.4857 14.0968 25.0041 14.9886 24.7187 16.0945C24.2192 17.8069 23.9695 19.5728 23.9695 21.3922V37.4457C23.9695 40.5851 24.4333 42.9039 25.3608 44.4023C26.324 45.9006 27.5726 46.6498 29.1066 46.6498C31.3541 46.6498 33.1379 45.5795 34.4578 43.4391C35.7778 41.2986 36.4378 38.7657 36.4378 35.8404ZM44.9996 47.9876H36.4913V42.1013C35.6708 44.2417 34.4935 45.8471 32.9595 46.9173C31.4255 47.9876 29.8201 48.5227 28.1434 48.5227C24.2906 48.5227 21.2226 47.3276 18.9394 44.9374C16.6562 42.5115 15.5146 39.1224 15.5146 34.7701V24.1213C15.5146 19.7333 16.7811 16.3799 19.314 14.0611C21.8469 11.7066 24.8257 10.5293 28.2505 10.5293C30.2482 10.5293 31.9784 11.1893 33.4411 12.5092C34.9038 13.7935 35.9205 15.3632 36.4913 17.2183V11.0644H44.9996V47.9876Z" fill="white"/>
<path d="M30 60C19.499 60 14.2485 60 10.2377 57.9564C6.70964 56.1587 3.84126 53.2904 2.04363 49.7623C0 45.7515 0 40.501 0 30C0 19.4989 0 14.2485 2.04363 10.2376C3.84126 6.70964 6.70964 3.84119 10.2377 2.04359C14.2485 -1.43051e-05 19.499 -1.43051e-05 30 -1.43051e-05C40.5011 -1.43051e-05 45.7515 -1.43051e-05 49.7624 2.04359C53.2904 3.84119 56.1588 6.70964 57.9564 10.2376C60 14.2485 60 19.4989 60 30C60 40.501 60 45.7515 57.9564 49.7623C56.1588 53.2904 53.2904 56.1587 49.7624 57.9564C45.7515 60 40.5011 60 30 60Z" fill="url(#paint1_linear_3460_722387)"/>
</g>
</g>
</g>
<defs>
<linearGradient id="paint0_linear_3460_722387" x1="3.5" y1="85" x2="49" y2="-13.5" gradientUnits="userSpaceOnUse">
<stop stop-color="#1E164B"/>
<stop offset="1" stop-color="#4E219C"/>
</linearGradient>
<linearGradient id="paint1_linear_3460_722387" x1="2.54737" y1="10.8205" x2="57.962" y2="49.5351" gradientUnits="userSpaceOnUse">
<stop stop-color="white" stop-opacity="0.3381"/>
<stop offset="0.5355" stop-color="white" stop-opacity="0"/>
<stop offset="1" stop-color="white" stop-opacity="0"/>
</linearGradient>
<clipPath id="clip0_3460_722387">
<rect width="60" height="60" fill="white"/>
</clipPath>
<clipPath id="clip1_3460_722387">
<rect width="60" height="60" fill="white"/>
</clipPath>
</defs>
</svg>
