<svg width="17" height="16" viewBox="0 0 17 16" fill="none" xmlns="http://www.w3.org/2000/svg">
<path fill-rule="evenodd" clip-rule="evenodd" d="M10.5969 4.20181C9.77086 4.81585 8.81645 5.39391 7.82981 5.68057C6.84317 5.96723 5.72744 5.99062 4.70082 5.91483C5.31514 6.74084 5.89351 7.69525 6.18043 8.68182C6.46722 9.66794 6.49171 10.7822 6.4171 11.8074C7.24255 11.1948 8.19628 10.6182 9.18247 10.3316C10.1687 10.0451 11.283 10.0209 12.3084 10.0957C11.6956 9.27022 11.1186 8.31651 10.8319 7.33039C10.5449 6.34382 10.5213 5.22826 10.5969 4.20181ZM11.0172 1.38789C9.85358 2.47596 8.49528 3.52668 7.30406 3.87277C6.11284 4.21887 4.40263 4.05966 2.83677 3.76459C2.67716 3.73451 2.51905 3.70302 2.36314 3.67051C2.01489 3.5979 1.67762 3.52019 1.35917 3.44175C1.2675 3.41917 1.17738 3.39653 1.08902 3.37393C0.668135 3.26631 0.303207 3.93034 0.619685 4.22794C0.686132 4.29042 0.753551 4.35436 0.821755 4.41964C1.05868 4.64642 1.30508 4.88947 1.55307 5.14453C1.66409 5.25872 1.77543 5.37531 1.88638 5.49392C2.97489 6.6576 4.02608 8.01597 4.37249 9.2071C4.71884 10.398 4.56211 12.1039 4.26973 13.6651C4.24006 13.8235 4.20899 13.9804 4.17692 14.1352C4.10479 14.4831 4.02754 14.8201 3.94953 15.1382C3.92697 15.2302 3.90434 15.3206 3.88175 15.4093C3.77462 15.8299 4.43794 16.1944 4.73558 15.8785C4.79832 15.8119 4.86254 15.7443 4.92812 15.676C5.15482 15.4396 5.39785 15.1937 5.65292 14.9463C5.76636 14.8363 5.88218 14.726 6 14.616C7.16118 13.5323 8.51722 12.4855 9.70822 12.1394C10.8992 11.7934 12.6054 11.9505 14.1669 12.2432C14.3253 12.2729 14.4823 12.304 14.637 12.3361C14.9851 12.4083 15.3221 12.4856 15.6402 12.5637C15.7322 12.5862 15.8227 12.6089 15.9114 12.6315C16.3321 12.7387 16.6965 12.0755 16.3805 11.7779C16.3139 11.7151 16.2463 11.6509 16.1779 11.5853C15.9414 11.3586 15.6955 11.1156 15.448 10.8605C15.3379 10.747 15.2275 10.6312 15.1175 10.5134C14.0334 9.3521 12.9861 7.99602 12.6398 6.80511C12.2934 5.61398 12.4522 3.90408 12.747 2.33853C12.777 2.17895 12.8085 2.02088 12.8409 1.86501C12.9135 1.51682 12.9911 1.17962 13.0695 0.861237C13.0921 0.769581 13.1147 0.679484 13.1373 0.591133C13.2448 0.170335 12.5806 -0.194687 12.283 0.121677C12.2206 0.188102 12.1566 0.255498 12.0914 0.32368C11.8646 0.560518 11.6216 0.806825 11.3665 1.05472C11.2523 1.16569 11.1358 1.27698 11.0172 1.38789Z" fill="white"/>
<path d="M7.82981 5.68057C8.81645 5.39391 9.77086 4.81585 10.5969 4.20181C10.5213 5.22826 10.5449 6.34382 10.8319 7.33039C11.1186 8.31651 11.6956 9.27022 12.3084 10.0957C11.283 10.0209 10.1687 10.0451 9.18247 10.3316C8.19628 10.6182 7.24255 11.1948 6.4171 11.8074C6.49171 10.7822 6.46722 9.66794 6.18043 8.68182C5.89351 7.69525 5.31514 6.74084 4.70082 5.91483C5.72744 5.99062 6.84317 5.96723 7.82981 5.68057Z" fill="white"/>
</svg>
