<svg xmlns="http://www.w3.org/2000/svg">
  <symbol id="logo" viewBox="0 0 107 36" fill="none" xmlns="http://www.w3.org/2000/svg">
    <path
      d="M103.316 27.1487C101.647 27.1487 100.296 25.8376 100.296 24.2087C100.296 22.5797 101.647 21.2288 103.316 21.2288C104.945 21.2288 106.296 22.5797 106.296 24.2087C106.296 25.8376 104.945 27.1487 103.316 27.1487Z"
      fill="#131314" />
    <path
      d="M20.1961 26.6642V7.27558H24.6459V9.93755H24.7254C26.3146 8.03047 28.6587 6.99747 31.2015 6.99747C35.4527 6.99747 38.3133 9.42105 38.3133 15.2615V26.6642H33.8635V16.4137C33.8635 12.3214 32.314 11.0103 29.652 11.0103C26.6325 11.0103 24.6459 13.116 24.6459 16.9302V26.6642H20.1961Z"
      fill="#131314" />
    <path
      d="M66.2892 27.9511C60.9255 27.9511 56.9127 24.0178 56.9127 18.0184C56.9127 12.178 60.9255 7.96651 66.2495 7.96651C68.7128 7.96651 70.8583 8.88032 72.2488 10.6285L72.3283 10.5887V8.24463H76.7782V27.6333H72.5269V25.0905L72.4475 25.0508C71.0569 26.9181 68.9909 27.9511 66.2892 27.9511ZM67.0044 23.8986C70.0239 23.8986 72.5269 21.5545 72.5269 18.0582C72.5269 14.6016 70.1828 11.9793 67.0044 11.9793C63.9054 11.9793 61.442 14.3235 61.442 18.0582C61.442 21.475 63.7067 23.8986 67.0044 23.8986Z"
      fill="#131314" />
    <path
      d="M78.2606 35.5V8.24463H82.7105V10.549H82.7899C84.2202 8.88032 86.3657 7.96651 88.9085 7.96651C94.2721 7.96651 98.285 12.178 98.285 18.0184C98.285 24.0178 94.2721 27.9511 88.8687 27.9511C86.2465 27.9511 84.2202 26.9976 82.7899 25.2494L82.7105 25.2892V35.5H78.2606ZM88.1933 23.8986C91.4512 23.8986 93.7556 21.475 93.7556 18.0582C93.7556 14.3235 91.2526 11.9793 88.1536 11.9793C84.8162 11.9793 82.5118 14.6016 82.5118 18.0582C82.5118 21.5545 85.0148 23.8986 88.1933 23.8986Z"
      fill="#131314" />
    <path d="M44.5761 7.76784H40.2154V27.1487H44.5761V7.76784Z" fill="#131314" />
    <path d="M59.5963 0.984523H40.2154V5.34523H49.9058V27.1487H54.7511V5.34523H59.5963V0.984523Z"
      fill="#131314" />
    <path
      d="M0 19.6386V0.5H5.02801V18.5841C4.92837 20.8757 6.75935 22.788 9.05316 22.788C11.2783 22.788 13.0821 20.9842 13.0821 18.7591V0.5H18.8964V19.6386C18.8964 24.8567 14.2713 27.1487 9.05316 27.1487C3.83507 27.1487 0 24.8567 0 19.6386Z"
      fill="#131314" />
  </symbol>
  <symbol id="icon-burger" viewBox="0 0 20 14" fill="none" xmlns="http://www.w3.org/2000/svg">
    <path d="M1 7H19M1 1H19M1 13H19" stroke="#131314" stroke-opacity="0.8" stroke-width="2" stroke-linecap="round" stroke-linejoin="round"/>
    </symbol>
  <symbol id="icon-search" viewBox="0 0 21 20" fill="none" xmlns="http://www.w3.org/2000/svg">
    <path
      d="M19.5 19L16.0001 15.5M18.5 9.5C18.5 14.1944 14.6944 18 10 18C5.30558 18 1.5 14.1944 1.5 9.5C1.5 4.80558 5.30558 1 10 1C14.6944 1 18.5 4.80558 18.5 9.5Z"
      stroke="#131314" stroke-opacity="0.4" stroke-width="2" stroke-linecap="round"
      stroke-linejoin="round" />
  </symbol>
  <symbol id="icon-arrow" viewBox="0 0 9 6" fill="none" xmlns="http://www.w3.org/2000/svg">
    <path d="M1 1.25L4.5 4.75L8 1.25" stroke="#131314" stroke-opacity="0.4" stroke-width="1.5"
      stroke-linecap="round" stroke-linejoin="round" />
  </symbol>
  <symbol id="icon-menu" viewBox="0 0 60 60" fill="none" xmlns="http://www.w3.org/2000/svg">
    <g clip-path="url(#clip0_3460_722365)">
      <g clip-path="url(#clip1_3460_722365)">
        <g clip-path="url(#clip2_3460_722365)">
          <mask id="mask0_3460_722365" style="mask-type:alpha" maskUnits="userSpaceOnUse" x="0"
            y="0" width="60" height="60">
            <path
              d="M0 30C0 19.499 0 14.2485 2.04363 10.2377C3.84126 6.70963 6.70963 3.84126 10.2377 2.04363C14.2485 0 19.499 0 30 0C40.501 0 45.7515 0 49.7624 2.04363C53.2904 3.84126 56.1588 6.70963 57.9564 10.2377C60 14.2485 60 19.499 60 30C60 40.501 60 45.7515 57.9564 49.7624C56.1588 53.2904 53.2904 56.1588 49.7624 57.9564C45.7515 60 40.501 60 30 60C19.499 60 14.2485 60 10.2377 57.9564C6.70963 56.1588 3.84126 53.2904 2.04363 49.7624C0 45.7515 0 40.501 0 30Z"
              fill="#FF3333" />
          </mask>
          <g mask="url(#mask0_3460_722365)">
            <path
              d="M0 30C0 19.499 0 14.2485 2.04363 10.2377C3.84126 6.70963 6.70963 3.84126 10.2377 2.04363C14.2485 0 19.499 0 30 0C40.501 0 45.7515 0 49.7624 2.04363C53.2904 3.84126 56.1588 6.70963 57.9564 10.2377C60 14.2485 60 19.499 60 30C60 40.501 60 45.7515 57.9564 49.7624C56.1588 53.2904 53.2904 56.1588 49.7624 57.9564C45.7515 60 40.501 60 30 60C19.499 60 14.2485 60 10.2377 57.9564C6.70963 56.1588 3.84126 53.2904 2.04363 49.7624C0 45.7515 0 40.501 0 30Z"
              fill="#367AFE" />
            <path
              d="M41.6056 32.1656C40.3411 36.8848 37.0441 40.2308 33.5441 40.9218L26.3285 67.8507L20.996 66.4219L28.2116 39.493C25.526 37.1445 24.3437 32.5984 25.6082 27.8791C27.2423 21.8873 32.1224 17.9654 36.5217 19.1441C40.9476 20.3301 43.213 26.1666 41.6056 32.1656ZM47.1866 22.0018L34.3272 69.994L39.6596 71.4228L45.3749 50.093L50.7074 51.5218L54.9939 35.5244C56.2513 30.8318 54.5454 23.9736 47.1866 22.0018ZM23.9371 15.7721C22.8706 15.4863 21.7888 16.1109 21.503 17.1774L19.1597 25.9227L16.9201 25.3226L19.2634 16.5773C19.5491 15.5108 18.9246 14.429 17.8581 14.1432C16.7916 13.8575 15.7098 14.4821 15.424 15.5486L13.0807 24.2938L10.8411 23.6937L13.1844 14.9484C13.4701 13.882 12.8456 12.8001 11.7791 12.5144C10.7126 12.2286 9.63076 12.8532 9.345 13.9197L5.57289 27.9974C4.78703 30.9302 6.54367 33.9728 9.47652 34.7587L2.33237 61.421L7.66484 62.8498L14.809 36.1875C17.7418 36.9734 20.7844 35.2167 21.5703 32.2839L25.3424 18.2062C25.6282 17.1397 25.0036 16.0579 23.9371 15.7721Z"
              fill="white" />
            <path
              d="M30 60C19.499 60 14.2485 60 10.2377 57.9564C6.70964 56.1587 3.84126 53.2904 2.04363 49.7623C0 45.7515 0 40.501 0 30C0 19.4989 0 14.2485 2.04363 10.2376C3.84126 6.70964 6.70964 3.84119 10.2377 2.04359C14.2485 -1.43051e-05 19.499 -1.43051e-05 30 -1.43051e-05C40.5011 -1.43051e-05 45.7515 -1.43051e-05 49.7624 2.04359C53.2904 3.84119 56.1588 6.70964 57.9564 10.2376C60 14.2485 60 19.4989 60 30C60 40.501 60 45.7515 57.9564 49.7623C56.1588 53.2904 53.2904 56.1587 49.7624 57.9564C45.7515 60 40.5011 60 30 60Z"
              fill="url(#paint0_linear_3460_722365)" />
          </g>
        </g>
      </g>
    </g>
    <defs>
      <linearGradient id="paint0_linear_3460_722365" x1="2.54737" y1="10.8205" x2="57.962"
        y2="49.5351" gradientUnits="userSpaceOnUse">
        <stop stop-color="white" stop-opacity="0.3381" />
        <stop offset="0.5355" stop-color="white" stop-opacity="0" />
        <stop offset="1" stop-color="white" stop-opacity="0" />
      </linearGradient>
      <clipPath id="clip0_3460_722365">
        <rect width="60" height="60" fill="white" />
      </clipPath>
      <clipPath id="clip1_3460_722365">
        <rect width="60" height="60" fill="white" />
      </clipPath>
      <clipPath id="clip2_3460_722365">
        <rect width="60" height="60" fill="white" />
      </clipPath>
    </defs>
  </symbol>
  <symbol id="icon-user" viewBox="0 0 60 60" fill="none" xmlns="http://www.w3.org/2000/svg">
    <g clip-path="url(#clip0_3460_722311)">
      <g clip-path="url(#clip1_3460_722311)">
        <g clip-path="url(#clip2_3460_722311)">
          <mask id="mask0_3460_722311" style="mask-type:alpha" maskUnits="userSpaceOnUse" x="0"
            y="0" width="60" height="60">
            <path
              d="M0 30C0 19.499 0 14.2485 2.04363 10.2377C3.84126 6.70963 6.70963 3.84126 10.2377 2.04363C14.2485 0 19.499 0 30 0C40.501 0 45.7515 0 49.7624 2.04363C53.2904 3.84126 56.1588 6.70963 57.9564 10.2377C60 14.2485 60 19.499 60 30C60 40.501 60 45.7515 57.9564 49.7624C56.1588 53.2904 53.2904 56.1588 49.7624 57.9564C45.7515 60 40.501 60 30 60C19.499 60 14.2485 60 10.2377 57.9564C6.70963 56.1588 3.84126 53.2904 2.04363 49.7624C0 45.7515 0 40.501 0 30Z"
              fill="#FF3333" />
          </mask>
          <g mask="url(#mask0_3460_722311)">
            <path
              d="M0 30C0 19.499 0 14.2485 2.04363 10.2377C3.84126 6.70963 6.70963 3.84126 10.2377 2.04363C14.2485 0 19.499 0 30 0C40.501 0 45.7515 0 49.7624 2.04363C53.2904 3.84126 56.1588 6.70963 57.9564 10.2377C60 14.2485 60 19.499 60 30C60 40.501 60 45.7515 57.9564 49.7624C56.1588 53.2904 53.2904 56.1588 49.7624 57.9564C45.7515 60 40.501 60 30 60C19.499 60 14.2485 60 10.2377 57.9564C6.70963 56.1588 3.84126 53.2904 2.04363 49.7624C0 45.7515 0 40.501 0 30Z"
              fill="#FED42B" />
            <path
              d="M50.1413 59.8166C51.5965 59.5133 52.4632 57.9906 51.7401 56.6919C50.146 53.8288 47.6347 51.3129 44.4221 49.3956C40.2846 46.9263 35.2152 45.5879 30 45.5879C24.7848 45.5879 19.7154 46.9263 15.5779 49.3956C12.3653 51.3129 9.85402 53.8288 8.25993 56.6919C7.53684 57.9906 8.40349 59.5133 9.85868 59.8166C23.1435 62.5852 36.8565 62.5852 50.1413 59.8166Z"
              fill="white" />
            <path
              d="M43.1616 27.1616C43.1616 34.4306 37.269 40.3232 30 40.3232C22.731 40.3232 16.8384 34.4306 16.8384 27.1616C16.8384 19.8927 22.731 14 30 14C37.269 14 43.1616 19.8927 43.1616 27.1616Z"
              fill="white" />
            <path
              d="M30 60C19.499 60 14.2485 60 10.2377 57.9564C6.70964 56.1587 3.84126 53.2904 2.04363 49.7623C0 45.7515 0 40.501 0 30C0 19.4989 0 14.2485 2.04363 10.2376C3.84126 6.70964 6.70964 3.84119 10.2377 2.04359C14.2485 -1.43051e-05 19.499 -1.43051e-05 30 -1.43051e-05C40.5011 -1.43051e-05 45.7515 -1.43051e-05 49.7624 2.04359C53.2904 3.84119 56.1588 6.70964 57.9564 10.2376C60 14.2485 60 19.4989 60 30C60 40.501 60 45.7515 57.9564 49.7623C56.1588 53.2904 53.2904 56.1587 49.7624 57.9564C45.7515 60 40.5011 60 30 60Z"
              fill="url(#paint0_linear_3460_722311)" />
          </g>
        </g>
      </g>
    </g>
    <defs>
      <linearGradient id="paint0_linear_3460_722311" x1="2.54737" y1="10.8205" x2="57.962"
        y2="49.5351" gradientUnits="userSpaceOnUse">
        <stop stop-color="white" stop-opacity="0.3381" />
        <stop offset="0.5355" stop-color="white" stop-opacity="0" />
        <stop offset="1" stop-color="white" stop-opacity="0" />
      </linearGradient>
      <clipPath id="clip0_3460_722311">
        <rect width="60" height="60" fill="white" />
      </clipPath>
      <clipPath id="clip1_3460_722311">
        <rect width="60" height="60" fill="white" />
      </clipPath>
      <clipPath id="clip2_3460_722311">
        <rect width="60" height="60" fill="white" />
      </clipPath>
    </defs>
  </symbol>
  <symbol id="icon-paw" viewBox="0 0 60 60" fill="none" xmlns="http://www.w3.org/2000/svg">
    <g clip-path="url(#clip0_3460_722329)">
      <g clip-path="url(#clip1_3460_722329)">
        <mask id="mask0_3460_722329" style="mask-type:alpha" maskUnits="userSpaceOnUse" x="0" y="0"
          width="60" height="60">
          <path
            d="M0 30C0 19.499 0 14.2485 2.04363 10.2377C3.84126 6.70963 6.70963 3.84126 10.2377 2.04363C14.2485 0 19.499 0 30 0C40.501 0 45.7515 0 49.7624 2.04363C53.2904 3.84126 56.1588 6.70963 57.9564 10.2377C60 14.2485 60 19.499 60 30C60 40.501 60 45.7515 57.9564 49.7624C56.1588 53.2904 53.2904 56.1588 49.7624 57.9564C45.7515 60 40.501 60 30 60C19.499 60 14.2485 60 10.2377 57.9564C6.70963 56.1588 3.84126 53.2904 2.04363 49.7624C0 45.7515 0 40.501 0 30Z"
            fill="#FF3333" />
        </mask>
        <g mask="url(#mask0_3460_722329)">
          <path
            d="M0 30C0 19.499 0 14.2485 2.04363 10.2377C3.84126 6.70963 6.70963 3.84126 10.2377 2.04363C14.2485 0 19.499 0 30 0C40.501 0 45.7515 0 49.7624 2.04363C53.2904 3.84126 56.1588 6.70963 57.9564 10.2377C60 14.2485 60 19.499 60 30C60 40.501 60 45.7515 57.9564 49.7624C56.1588 53.2904 53.2904 56.1588 49.7624 57.9564C45.7515 60 40.501 60 30 60C19.499 60 14.2485 60 10.2377 57.9564C6.70963 56.1588 3.84126 53.2904 2.04363 49.7624C0 45.7515 0 40.501 0 30Z"
            fill="#27C80C" />
          <path
            d="M30 60C19.499 60 14.2485 60 10.2377 57.9564C6.70964 56.1587 3.84126 53.2904 2.04363 49.7623C0 45.7515 0 40.501 0 30C0 19.4989 0 14.2485 2.04363 10.2376C3.84126 6.70964 6.70964 3.84119 10.2377 2.04359C14.2485 -1.43051e-05 19.499 -1.43051e-05 30 -1.43051e-05C40.5011 -1.43051e-05 45.7515 -1.43051e-05 49.7624 2.04359C53.2904 3.84119 56.1588 6.70964 57.9564 10.2376C60 14.2485 60 19.4989 60 30C60 40.501 60 45.7515 57.9564 49.7623C56.1588 53.2904 53.2904 56.1587 49.7624 57.9564C45.7515 60 40.5011 60 30 60Z"
            fill="url(#paint0_linear_3460_722329)" />
          <path fill-rule="evenodd" clip-rule="evenodd"
            d="M19.4475 18.4495C20.861 18.8861 22.2157 19.8416 23.2574 21.1537C24.2986 22.4653 24.9191 23.9976 25.0089 25.4696C25.0984 26.9367 24.6512 28.51 23.3386 29.5197C22.033 30.5242 20.3958 30.5668 18.9927 30.1334C17.5792 29.6968 16.2245 28.7413 15.1828 27.4292C14.1416 26.1176 13.521 24.5853 13.4313 23.1132C13.3418 21.6462 13.789 20.0729 15.1015 19.0631C16.4072 18.0587 18.0444 18.0161 19.4475 18.4495ZM18.4726 21.6058C17.7566 21.3847 17.3255 21.5201 17.1158 21.6814C16.9131 21.8374 16.685 22.1968 16.7286 22.9122C16.7719 23.6225 17.0929 24.5223 17.77 25.3752C18.4468 26.2276 19.2619 26.7591 19.9675 26.9771C20.6835 27.1982 21.1147 27.0628 21.3243 26.9015C21.5271 26.7455 21.7552 26.386 21.7116 25.6707C21.6683 24.9604 21.3473 24.0606 20.6701 23.2077C19.9934 22.3553 19.1783 21.8237 18.4726 21.6058ZM29.3217 15.8373C29.1078 16.5441 29.0926 17.5171 29.4209 18.5548C29.7493 19.5932 30.3158 20.3624 30.8804 20.7956C31.4491 21.2317 31.8747 21.2436 32.1173 21.1627C32.3683 21.0791 32.7217 20.7974 32.9387 20.0802C33.1526 19.3733 33.1678 18.4003 32.8395 17.3626C32.5111 16.3243 31.9446 15.555 31.38 15.1219C30.8113 14.6857 30.3857 14.6738 30.1431 14.7547C29.8921 14.8383 29.5387 15.12 29.3217 15.8373ZM26.1598 14.8805C26.5852 13.4749 27.536 12.1414 29.0988 11.6207C30.6699 11.0972 32.2243 11.6062 33.3905 12.5007C34.5607 13.3983 35.4841 14.7696 35.9891 16.3663C36.4944 17.9635 36.529 19.621 36.1006 21.037C35.6752 22.4426 34.7244 23.7761 33.1616 24.2968C31.5905 24.8203 30.0361 24.3113 28.8699 23.4167C27.6997 22.5191 26.7763 21.1478 26.2713 19.5512C25.766 17.9539 25.7314 16.2964 26.1598 14.8805ZM16.3469 31.9209C17.7698 32.0277 19.2608 32.6431 20.5538 33.6472C21.8481 34.6522 22.8202 35.9499 23.3025 37.3022C23.7768 38.6317 23.8392 40.2472 22.8829 41.5563C21.9146 42.8817 20.3505 43.2832 18.9398 43.1773C17.5169 43.0705 16.026 42.4551 14.7329 41.451C13.4386 40.446 12.4665 39.1483 11.9842 37.796C11.5099 36.4665 11.4475 34.851 12.4039 33.5419C13.3721 32.2165 14.9362 31.815 16.3469 31.9209ZM16.0996 35.215C15.4099 35.1633 15.151 35.3815 15.0713 35.4906C14.9797 35.6159 14.843 35.978 15.0956 36.6862C15.3401 37.3716 15.8961 38.1718 16.759 38.8418C17.623 39.5128 18.5097 39.8323 19.1871 39.8832C19.8768 39.9349 20.1357 39.7167 20.2154 39.6076C20.307 39.4823 20.4437 39.1202 20.1911 38.412C19.9466 37.7266 19.3906 36.9264 18.5278 36.2564C17.6637 35.5854 16.777 35.2659 16.0996 35.215ZM41.9312 21.4801C41.5946 22.0702 41.3636 22.984 41.4367 24.0755C41.5097 25.1654 41.8622 26.0739 42.2937 26.6599C42.7395 27.2653 43.1162 27.3544 43.2713 27.3486C43.4063 27.3435 43.732 27.2509 44.0748 26.6501C44.4114 26.0601 44.6423 25.1463 44.5693 24.0548C44.4963 22.9649 44.1438 22.0564 43.7123 21.4704C43.2665 20.865 42.8898 20.7759 42.7346 20.7817C42.5996 20.7868 42.274 20.8794 41.9312 21.4801ZM39.062 19.843C39.763 18.6144 40.9705 17.5422 42.6107 17.4806C44.2308 17.4198 45.5352 18.3749 46.3723 19.5115C47.2237 20.6676 47.7559 22.1992 47.8653 23.8342C47.9747 25.4677 47.6512 27.0478 46.944 28.2872C46.243 29.5159 45.0354 30.5881 43.3952 30.6497C41.7752 30.7105 40.4708 29.7554 39.6337 28.6187C38.7823 27.4626 38.2501 25.9311 38.1407 24.2961C38.0313 22.6626 38.3548 21.0824 39.062 19.843ZM25.8514 32.9804C26.1721 31.1889 27.0307 29.4919 29.0523 28.417C31.0739 27.3421 32.961 27.5792 34.6255 28.3152C35.8657 28.8635 37.1065 29.7538 38.2266 30.5576C38.4804 30.7397 38.728 30.9174 38.968 31.0856C39.9567 31.7787 40.8176 32.2752 41.6251 32.7408C41.9248 32.9136 42.2171 33.0821 42.5058 33.2549C43.4783 33.8368 44.5809 34.5574 45.2077 35.7367C45.7093 36.6805 45.925 37.6322 45.8208 38.5647C45.7171 39.4922 45.3139 40.2476 44.8365 40.8334C43.9698 41.8967 42.7056 42.5673 42.0468 42.9168C42.023 42.9294 42 42.9416 41.9778 42.9534C41.2296 43.3512 40.6155 43.5461 40.0818 43.7155C40.0133 43.7372 39.946 43.7586 39.88 43.7799C39.3231 43.9595 38.6962 44.1786 37.7114 44.7022C36.7265 45.2259 36.1943 45.6231 35.734 45.9843C35.6794 46.0272 35.6241 46.071 35.5677 46.1157C35.1289 46.4634 34.6239 46.8635 33.8757 47.2613C33.8535 47.2731 33.8305 47.2854 33.8068 47.2981C33.1487 47.6488 31.8858 48.3219 30.5196 48.4458C29.767 48.5141 28.9153 48.4259 28.0883 47.9932C27.257 47.5582 26.5886 46.8471 26.0867 45.9035C25.4594 44.7244 25.4787 43.4074 25.54 42.2757C25.5583 41.9398 25.582 41.6032 25.6063 41.2581C25.6718 40.3284 25.7417 39.3369 25.7199 38.1297C25.7147 37.8367 25.7058 37.532 25.6968 37.2198C25.6568 35.8417 25.6125 34.3152 25.8514 32.9804ZM28.9962 36.9578C29.0058 37.3099 29.0158 37.6799 29.0228 38.0703C29.0474 39.4378 28.9622 40.6454 28.8946 41.6024C28.8726 41.9141 28.8525 42.1992 28.8386 42.4545C28.7763 43.6035 28.8512 44.0664 29.0031 44.3521C29.2536 44.8229 29.4837 44.995 29.6198 45.0662C29.7604 45.1398 29.9453 45.1809 30.2212 45.1559C30.8627 45.0977 31.5834 44.7388 32.3248 44.3446C32.7968 44.0936 33.0779 43.8719 33.5161 43.5261C33.5727 43.4815 33.6319 43.4347 33.6945 43.3856C34.2608 42.9412 34.9578 42.425 36.1605 41.7855C37.3632 41.146 38.1809 40.8569 38.866 40.6359C38.9417 40.6115 39.0136 40.5885 39.0823 40.5665C39.614 40.3966 39.9549 40.2876 40.4269 40.0366C41.1684 39.6424 41.8689 39.2456 42.2758 38.7463C42.4509 38.5315 42.5202 38.3553 42.5378 38.1976C42.5549 38.0449 42.5409 37.7579 42.2906 37.287C42.1387 37.0012 41.7968 36.6804 40.8095 36.0895C40.59 35.9582 40.3424 35.8155 40.0717 35.6594C39.2405 35.1803 38.1917 34.5757 37.0718 33.7906C36.7521 33.5665 36.4509 33.3513 36.1644 33.1464C35.0696 32.364 34.1871 31.7332 33.2897 31.3365C32.3009 30.8993 31.512 30.8506 30.6032 31.3338C29.6944 31.817 29.2937 32.4982 29.1032 33.5625C28.9303 34.5283 28.9597 35.6127 28.9962 36.9578Z"
            fill="white" />
          <path
            d="M41.4367 24.0755C41.3636 22.984 41.5946 22.0702 41.9312 21.4801C42.274 20.8794 42.5996 20.7868 42.7346 20.7817C42.8898 20.7759 43.2665 20.865 43.7123 21.4704C44.1438 22.0564 44.4963 22.9649 44.5693 24.0548C44.6423 25.1463 44.4114 26.0601 44.0748 26.6501C43.732 27.2509 43.4063 27.3435 43.2713 27.3486C43.1162 27.3544 42.7395 27.2653 42.2937 26.6599C41.8622 26.0739 41.5097 25.1654 41.4367 24.0755Z"
            fill="white" />
          <path
            d="M29.4209 18.5548C29.0926 17.5171 29.1078 16.5441 29.3217 15.8373C29.5387 15.12 29.8921 14.8383 30.1431 14.7547C30.3857 14.6738 30.8113 14.6857 31.38 15.1219C31.9446 15.555 32.5111 16.3243 32.8395 17.3626C33.1678 18.4003 33.1526 19.3733 32.9387 20.0802C32.7217 20.7974 32.3683 21.0791 32.1173 21.1627C31.8747 21.2436 31.4491 21.2317 30.8804 20.7956C30.3158 20.3624 29.7493 19.5932 29.4209 18.5548Z"
            fill="white" />
          <path
            d="M17.1158 21.6814C17.3255 21.5201 17.7566 21.3847 18.4726 21.6058C19.1783 21.8237 19.9934 22.3553 20.6701 23.2077C21.3473 24.0606 21.6683 24.9604 21.7116 25.6707C21.7552 26.386 21.5271 26.7455 21.3243 26.9015C21.1147 27.0628 20.6835 27.1982 19.9675 26.9771C19.2619 26.7591 18.4468 26.2276 17.77 25.3752C17.0929 24.5223 16.7719 23.6225 16.7286 22.9122C16.685 22.1968 16.9131 21.8374 17.1158 21.6814Z"
            fill="white" />
          <path
            d="M15.0713 35.4906C15.151 35.3815 15.4099 35.1633 16.0996 35.215C16.777 35.2659 17.6637 35.5854 18.5278 36.2564C19.3906 36.9264 19.9466 37.7266 20.1911 38.412C20.4437 39.1202 20.307 39.4823 20.2154 39.6076C20.1357 39.7167 19.8768 39.9349 19.1871 39.8832C18.5097 39.8323 17.623 39.5128 16.759 38.8418C15.8961 38.1718 15.3401 37.3716 15.0956 36.6862C14.843 35.978 14.9797 35.6159 15.0713 35.4906Z"
            fill="white" />
          <path
            d="M29.0228 38.0703C29.0158 37.6799 29.0058 37.3099 28.9962 36.9578C28.9597 35.6127 28.9303 34.5283 29.1032 33.5625C29.2937 32.4982 29.6944 31.817 30.6032 31.3338C31.512 30.8506 32.3009 30.8993 33.2897 31.3365C34.1871 31.7332 35.0696 32.364 36.1644 33.1464C36.4509 33.3513 36.7521 33.5665 37.0718 33.7906C38.1917 34.5757 39.2405 35.1803 40.0717 35.6594C40.3424 35.8155 40.59 35.9582 40.8095 36.0895C41.7968 36.6804 42.1387 37.0012 42.2906 37.287C42.5409 37.7579 42.5549 38.0449 42.5378 38.1976C42.5202 38.3553 42.4509 38.5315 42.2758 38.7463C41.8689 39.2456 41.1684 39.6424 40.4269 40.0366C39.9549 40.2876 39.614 40.3966 39.0823 40.5665C39.0136 40.5885 38.9417 40.6115 38.866 40.6359C38.1809 40.8569 37.3632 41.146 36.1605 41.7855C34.9578 42.425 34.2608 42.9412 33.6945 43.3856C33.6319 43.4347 33.5727 43.4815 33.5161 43.5261C33.0779 43.8719 32.7968 44.0936 32.3248 44.3446C31.5834 44.7388 30.8627 45.0977 30.2212 45.1559C29.9453 45.1809 29.7604 45.1398 29.6198 45.0662C29.4837 44.995 29.2536 44.8229 29.0031 44.3521C28.8512 44.0664 28.7763 43.6035 28.8386 42.4545C28.8525 42.1992 28.8726 41.9141 28.8946 41.6024C28.9622 40.6454 29.0474 39.4378 29.0228 38.0703Z"
            fill="white" />
        </g>
      </g>
    </g>
    <defs>
      <linearGradient id="paint0_linear_3460_722329" x1="2.54737" y1="10.8205" x2="57.962"
        y2="49.5351" gradientUnits="userSpaceOnUse">
        <stop stop-color="white" stop-opacity="0.3381" />
        <stop offset="0.5355" stop-color="white" stop-opacity="0" />
        <stop offset="1" stop-color="white" stop-opacity="0" />
      </linearGradient>
      <clipPath id="clip0_3460_722329">
        <rect width="60" height="60" fill="white" />
      </clipPath>
      <clipPath id="clip1_3460_722329">
        <rect width="60" height="60" fill="white" />
      </clipPath>
    </defs>
  </symbol>
  <symbol id="icon-hearts" viewBox="0 0 60 60" fill="none" xmlns="http://www.w3.org/2000/svg">
    <g clip-path="url(#clip0_3460_722347)">
      <g clip-path="url(#clip1_3460_722347)">
        <mask id="mask0_3460_722347" style="mask-type:alpha" maskUnits="userSpaceOnUse" x="0" y="0"
          width="60" height="60">
          <path
            d="M0 30C0 19.499 0 14.2485 2.04363 10.2377C3.84126 6.70963 6.70963 3.84126 10.2377 2.04363C14.2485 0 19.499 0 30 0C40.501 0 45.7515 0 49.7624 2.04363C53.2904 3.84126 56.1588 6.70963 57.9564 10.2377C60 14.2485 60 19.499 60 30C60 40.501 60 45.7515 57.9564 49.7624C56.1588 53.2904 53.2904 56.1588 49.7624 57.9564C45.7515 60 40.501 60 30 60C19.499 60 14.2485 60 10.2377 57.9564C6.70963 56.1588 3.84126 53.2904 2.04363 49.7624C0 45.7515 0 40.501 0 30Z"
            fill="#FF3333" />
        </mask>
        <g mask="url(#mask0_3460_722347)">
          <path
            d="M30 60C19.499 60 14.2485 60 10.2377 57.9564C6.70964 56.1587 3.84126 53.2904 2.04363 49.7623C0 45.7515 0 40.501 0 30C0 19.4989 0 14.2485 2.04363 10.2376C3.84126 6.70964 6.70964 3.84119 10.2377 2.04359C14.2485 -1.43051e-05 19.499 -1.43051e-05 30 -1.43051e-05C40.5011 -1.43051e-05 45.7515 -1.43051e-05 49.7624 2.04359C53.2904 3.84119 56.1588 6.70964 57.9564 10.2376C60 14.2485 60 19.4989 60 30C60 40.501 60 45.7515 57.9564 49.7623C56.1588 53.2904 53.2904 56.1587 49.7624 57.9564C45.7515 60 40.5011 60 30 60Z"
            fill="url(#paint0_linear_3460_722347)" />
          <path
            d="M13.6417 16.8965C16.4435 12.8181 21.5242 12.4342 25.3329 15.0477C27.3246 10.88 31.8628 8.72147 36.3822 10.8032C40.9016 12.8849 42.7504 17.9882 40.8807 22.4249C40.6028 23.0844 40.2001 23.8934 39.716 24.7928C39.5866 25.0332 39.2438 25.0412 39.0881 24.817C37.1815 22.0719 33.9613 20.4756 30.1973 21.174C24.8369 22.1685 21.3709 27.0048 22.0955 32.2598C22.1517 32.6671 21.7217 32.9781 21.3622 32.7784C19.013 31.4736 16.8299 30.175 15.5567 29.2104C11.7192 26.303 10.8398 20.9749 13.6417 16.8965Z"
            fill="white" />
          <path
            d="M40.0141 29.5226C39.7764 28.2454 39.2999 27.0646 38.6295 26.0473C38.59 25.9874 38.5498 25.928 38.509 25.8693C36.7786 23.3778 33.856 21.929 30.4398 22.5629C25.5747 23.4656 22.429 27.8549 23.0867 32.6243C23.1486 33.0733 23.2433 33.5932 23.3641 34.1666L23.3722 34.205C24.2883 38.5298 26.6668 45.8523 27.6581 48.8331C27.8118 49.2952 27.8887 49.5263 28.0408 49.6874C28.1734 49.8278 28.3496 49.9295 28.5374 49.9741C28.753 50.0253 28.9916 49.9763 29.4686 49.8784C32.9645 49.1605 42.2089 47.1912 45.7916 45.7329C50.2508 43.9178 52.5521 39.0019 50.8284 34.3342C49.1047 29.6666 44.3694 27.9839 40.0141 29.5226Z"
            fill="white" />
          <path
            d="M0 30C0 19.499 0 14.2485 2.04363 10.2377C3.84126 6.70963 6.70963 3.84126 10.2377 2.04363C14.2485 0 19.499 0 30 0C40.501 0 45.7515 0 49.7624 2.04363C53.2904 3.84126 56.1588 6.70963 57.9564 10.2377C60 14.2485 60 19.499 60 30C60 40.501 60 45.7515 57.9564 49.7624C56.1588 53.2904 53.2904 56.1588 49.7624 57.9564C45.7515 60 40.501 60 30 60C19.499 60 14.2485 60 10.2377 57.9564C6.70963 56.1588 3.84126 53.2904 2.04363 49.7624C0 45.7515 0 40.501 0 30Z"
            fill="url(#paint1_linear_3460_722347)" />
        </g>
      </g>
    </g>
    <defs>
      <linearGradient id="paint0_linear_3460_722347" x1="-59.7052" y1="-14.2188" x2="8.84284"
        y2="66.5791" gradientUnits="userSpaceOnUse">
        <stop stop-color="#FFDA3E" />
        <stop offset="1" stop-color="#FC4714" />
      </linearGradient>
      <linearGradient id="paint1_linear_3460_722347" x1="49.1794" y1="2.54737" x2="10.4649"
        y2="57.9619" gradientUnits="userSpaceOnUse">
        <stop stop-color="white" stop-opacity="0.3381" />
        <stop offset="0.5355" stop-color="white" stop-opacity="0" />
        <stop offset="1" stop-color="white" stop-opacity="0" />
      </linearGradient>
      <clipPath id="clip0_3460_722347">
        <rect width="60" height="60" fill="white" />
      </clipPath>
      <clipPath id="clip1_3460_722347">
        <rect width="60" height="60" fill="white" />
      </clipPath>
    </defs>
  </symbol>
  <symbol id="icon-placard" viewBox="0 0 60 60" fill="none" xmlns="http://www.w3.org/2000/svg">
    <g clip-path="url(#clip0_3460_722387)">
      <g clip-path="url(#clip1_3460_722387)">
        <mask id="mask0_3460_722387" style="mask-type:alpha" maskUnits="userSpaceOnUse" x="0" y="0"
          width="60" height="60">
          <path
            d="M0 30C0 19.499 0 14.2485 2.04363 10.2377C3.84126 6.70963 6.70963 3.84126 10.2377 2.04363C14.2485 0 19.499 0 30 0C40.501 0 45.7515 0 49.7624 2.04363C53.2904 3.84126 56.1588 6.70963 57.9564 10.2377C60 14.2485 60 19.499 60 30C60 40.501 60 45.7515 57.9564 49.7624C56.1588 53.2904 53.2904 56.1588 49.7624 57.9564C45.7515 60 40.501 60 30 60C19.499 60 14.2485 60 10.2377 57.9564C6.70963 56.1588 3.84126 53.2904 2.04363 49.7624C0 45.7515 0 40.501 0 30Z"
            fill="#FF3333" />
        </mask>
        <g mask="url(#mask0_3460_722387)">
          <path
            d="M0 30C0 19.499 0 14.2485 2.04363 10.2377C3.84126 6.70963 6.70963 3.84126 10.2377 2.04363C14.2485 0 19.499 0 30 0C40.501 0 45.7515 0 49.7624 2.04363C53.2904 3.84126 56.1588 6.70963 57.9564 10.2377C60 14.2485 60 19.499 60 30C60 40.501 60 45.7515 57.9564 49.7624C56.1588 53.2904 53.2904 56.1588 49.7624 57.9564C45.7515 60 40.501 60 30 60C19.499 60 14.2485 60 10.2377 57.9564C6.70963 56.1588 3.84126 53.2904 2.04363 49.7624C0 45.7515 0 40.501 0 30Z"
            fill="url(#paint0_linear_3460_722387)" />
          <path
            d="M36.4378 35.8404V22.944C36.4378 20.2684 35.7243 17.8426 34.2973 15.6664C32.906 13.4903 31.0687 12.4022 28.7856 12.4022C27.751 12.4022 26.877 12.7411 26.1635 13.4189C25.4857 14.0968 25.0041 14.9886 24.7187 16.0945C24.2192 17.8069 23.9695 19.5728 23.9695 21.3922V37.4457C23.9695 40.5851 24.4333 42.9039 25.3608 44.4023C26.324 45.9006 27.5726 46.6498 29.1066 46.6498C31.3541 46.6498 33.1379 45.5795 34.4578 43.4391C35.7778 41.2986 36.4378 38.7657 36.4378 35.8404ZM44.9996 47.9876H36.4913V42.1013C35.6708 44.2417 34.4935 45.8471 32.9595 46.9173C31.4255 47.9876 29.8201 48.5227 28.1434 48.5227C24.2906 48.5227 21.2226 47.3276 18.9394 44.9374C16.6562 42.5115 15.5146 39.1224 15.5146 34.7701V24.1213C15.5146 19.7333 16.7811 16.3799 19.314 14.0611C21.8469 11.7066 24.8257 10.5293 28.2505 10.5293C30.2482 10.5293 31.9784 11.1893 33.4411 12.5092C34.9038 13.7935 35.9205 15.3632 36.4913 17.2183V11.0644H44.9996V47.9876Z"
            fill="white" />
          <path
            d="M30 60C19.499 60 14.2485 60 10.2377 57.9564C6.70964 56.1587 3.84126 53.2904 2.04363 49.7623C0 45.7515 0 40.501 0 30C0 19.4989 0 14.2485 2.04363 10.2376C3.84126 6.70964 6.70964 3.84119 10.2377 2.04359C14.2485 -1.43051e-05 19.499 -1.43051e-05 30 -1.43051e-05C40.5011 -1.43051e-05 45.7515 -1.43051e-05 49.7624 2.04359C53.2904 3.84119 56.1588 6.70964 57.9564 10.2376C60 14.2485 60 19.4989 60 30C60 40.501 60 45.7515 57.9564 49.7623C56.1588 53.2904 53.2904 56.1587 49.7624 57.9564C45.7515 60 40.5011 60 30 60Z"
            fill="url(#paint1_linear_3460_722387)" />
        </g>
      </g>
    </g>
    <defs>
      <linearGradient id="paint0_linear_3460_722387" x1="3.5" y1="85" x2="49" y2="-13.5"
        gradientUnits="userSpaceOnUse">
        <stop stop-color="#1E164B" />
        <stop offset="1" stop-color="#4E219C" />
      </linearGradient>
      <linearGradient id="paint1_linear_3460_722387" x1="2.54737" y1="10.8205" x2="57.962"
        y2="49.5351" gradientUnits="userSpaceOnUse">
        <stop stop-color="white" stop-opacity="0.3381" />
        <stop offset="0.5355" stop-color="white" stop-opacity="0" />
        <stop offset="1" stop-color="white" stop-opacity="0" />
      </linearGradient>
      <clipPath id="clip0_3460_722387">
        <rect width="60" height="60" fill="white" />
      </clipPath>
      <clipPath id="clip1_3460_722387">
        <rect width="60" height="60" fill="white" />
      </clipPath>
    </defs>
  </symbol>
  <symbol id="icon-case" viewBox="0 0 60 60" fill="none" xmlns="http://www.w3.org/2000/svg">
    <g clip-path="url(#clip0_3460_722409)">
      <g clip-path="url(#clip1_3460_722409)">
        <mask id="mask0_3460_722409" style="mask-type:alpha" maskUnits="userSpaceOnUse" x="0" y="0"
          width="60" height="60">
          <path
            d="M0 30C0 19.499 0 14.2485 2.04363 10.2377C3.84126 6.70963 6.70963 3.84126 10.2377 2.04363C14.2485 0 19.499 0 30 0C40.501 0 45.7515 0 49.7624 2.04363C53.2904 3.84126 56.1588 6.70963 57.9564 10.2377C60 14.2485 60 19.499 60 30C60 40.501 60 45.7515 57.9564 49.7624C56.1588 53.2904 53.2904 56.1588 49.7624 57.9564C45.7515 60 40.501 60 30 60C19.499 60 14.2485 60 10.2377 57.9564C6.70963 56.1588 3.84126 53.2904 2.04363 49.7624C0 45.7515 0 40.501 0 30Z"
            fill="#FF3333" />
        </mask>
        <g mask="url(#mask0_3460_722409)">
          <path
            d="M0 30C0 19.499 0 14.2485 2.04363 10.2377C3.84126 6.70963 6.70963 3.84126 10.2377 2.04363C14.2485 0 19.499 0 30 0C40.501 0 45.7515 0 49.7624 2.04363C53.2904 3.84126 56.1588 6.70963 57.9564 10.2377C60 14.2485 60 19.499 60 30C60 40.501 60 45.7515 57.9564 49.7624C56.1588 53.2904 53.2904 56.1588 49.7624 57.9564C45.7515 60 40.501 60 30 60C19.499 60 14.2485 60 10.2377 57.9564C6.70963 56.1588 3.84126 53.2904 2.04363 49.7624C0 45.7515 0 40.501 0 30Z"
            fill="#012B5B" />
          <path
            d="M48.2 24.4H40.4V21.8C40.4 19.7313 39.5782 17.7474 38.1154 16.2846C36.6526 14.8218 34.6687 14 32.6 14H27.4C25.3313 14 23.3473 14.8218 21.8846 16.2846C20.4218 17.7474 19.6 19.7313 19.6 21.8V24.4H11.8C9.73131 24.4 7.74735 25.2218 6.28457 26.6846C4.82178 28.1474 4 30.1313 4 32.2V55.6C4 57.6687 4.82178 59.6527 6.28457 61.1154C7.74735 62.5782 9.73131 63.4 11.8 63.4H48.2C50.2687 63.4 52.2526 62.5782 53.7154 61.1154C55.1782 59.6527 56 57.6687 56 55.6V32.2C56 30.1313 55.1782 28.1474 53.7154 26.6846C52.2526 25.2218 50.2687 24.4 48.2 24.4ZM24.8 21.8C24.8 21.1104 25.0739 20.4491 25.5615 19.9615C26.0491 19.4739 26.7104 19.2 27.4 19.2H32.6C33.2896 19.2 33.9509 19.4739 34.4385 19.9615C34.9261 20.4491 35.2 21.1104 35.2 21.8V24.4H24.8V21.8ZM50.8 55.6C50.8 56.2896 50.5261 56.9509 50.0385 57.4385C49.5509 57.9261 48.8896 58.2 48.2 58.2H11.8C11.1104 58.2 10.4491 57.9261 9.96152 57.4385C9.47393 56.9509 9.2 56.2896 9.2 55.6V41.3C15.8203 43.9264 22.8778 45.2761 30 45.278C37.122 45.2736 44.179 43.924 50.8 41.3V55.6ZM50.8 35.606C44.2438 38.4862 37.1609 39.9734 30 39.9734C22.8391 39.9734 15.7562 38.4862 9.2 35.606V32.2C9.2 31.5104 9.47393 30.8491 9.96152 30.3615C10.4491 29.8739 11.1104 29.6 11.8 29.6H48.2C48.8896 29.6 49.5509 29.8739 50.0385 30.3615C50.5261 30.8491 50.8 31.5104 50.8 32.2V35.606Z"
            fill="white" />
          <path
            d="M50.8 55.6C50.8 56.2896 50.5261 56.9509 50.0385 57.4385C49.5509 57.9261 48.8896 58.2 48.2 58.2H11.8C11.1104 58.2 10.4491 57.9261 9.96152 57.4385C9.47393 56.9509 9.2 56.2896 9.2 55.6V41.3C15.8203 43.9264 22.8778 45.2761 30 45.278C37.122 45.2736 44.179 43.924 50.8 41.3V55.6Z"
            fill="white" />
          <path
            d="M30 60C19.499 60 14.2485 60 10.2377 57.9564C6.70964 56.1587 3.84126 53.2904 2.04363 49.7623C0 45.7515 0 40.501 0 30C0 19.4989 0 14.2485 2.04363 10.2376C3.84126 6.70964 6.70964 3.84119 10.2377 2.04359C14.2485 -1.43051e-05 19.499 -1.43051e-05 30 -1.43051e-05C40.5011 -1.43051e-05 45.7515 -1.43051e-05 49.7624 2.04359C53.2904 3.84119 56.1588 6.70964 57.9564 10.2376C60 14.2485 60 19.4989 60 30C60 40.501 60 45.7515 57.9564 49.7623C56.1588 53.2904 53.2904 56.1587 49.7624 57.9564C45.7515 60 40.5011 60 30 60Z"
            fill="url(#paint0_linear_3460_722409)" />
        </g>
      </g>
    </g>
    <defs>
      <linearGradient id="paint0_linear_3460_722409" x1="2.54737" y1="10.8205" x2="57.962"
        y2="49.5351" gradientUnits="userSpaceOnUse">
        <stop stop-color="white" stop-opacity="0.3381" />
        <stop offset="0.5355" stop-color="white" stop-opacity="0" />
        <stop offset="1" stop-color="white" stop-opacity="0" />
      </linearGradient>
      <clipPath id="clip0_3460_722409">
        <rect width="60" height="60" fill="white" />
      </clipPath>
      <clipPath id="clip1_3460_722409">
        <rect width="60" height="60" fill="white" />
      </clipPath>
    </defs>
  </symbol>
  <symbol id="icon-label" viewBox="0 0 60 60" fill="none" xmlns="http://www.w3.org/2000/svg">
    <g clip-path="url(#clip0_3460_722431)">
      <g clip-path="url(#clip1_3460_722431)">
        <mask id="mask0_3460_722431" style="mask-type:alpha" maskUnits="userSpaceOnUse" x="0" y="0"
          width="60" height="60">
          <path
            d="M0 30C0 19.499 0 14.2485 2.04363 10.2377C3.84126 6.70963 6.70963 3.84126 10.2377 2.04363C14.2485 0 19.499 0 30 0C40.501 0 45.7515 0 49.7624 2.04363C53.2904 3.84126 56.1588 6.70963 57.9564 10.2377C60 14.2485 60 19.499 60 30C60 40.501 60 45.7515 57.9564 49.7624C56.1588 53.2904 53.2904 56.1588 49.7624 57.9564C45.7515 60 40.501 60 30 60C19.499 60 14.2485 60 10.2377 57.9564C6.70963 56.1588 3.84126 53.2904 2.04363 49.7624C0 45.7515 0 40.501 0 30Z"
            fill="#FF3333" />
        </mask>
        <g mask="url(#mask0_3460_722431)">
          <path
            d="M0 30C0 19.499 0 14.2485 2.04363 10.2377C3.84126 6.70963 6.70963 3.84126 10.2377 2.04363C14.2485 0 19.499 0 30 0C40.501 0 45.7515 0 49.7624 2.04363C53.2904 3.84126 56.1588 6.70963 57.9564 10.2377C60 14.2485 60 19.499 60 30C60 40.501 60 45.7515 57.9564 49.7624C56.1588 53.2904 53.2904 56.1588 49.7624 57.9564C45.7515 60 40.501 60 30 60C19.499 60 14.2485 60 10.2377 57.9564C6.70963 56.1588 3.84126 53.2904 2.04363 49.7624C0 45.7515 0 40.501 0 30Z"
            fill="url(#paint0_linear_3460_722431)" />
          <path fill-rule="evenodd" clip-rule="evenodd"
            d="M46.4264 27.2943L30.1245 10.9924C29.3892 10.2571 29.0215 9.88944 28.5925 9.62651C28.2121 9.39341 27.7974 9.22162 27.3636 9.11747C26.8743 9 26.3543 9 25.3144 9H19.258C18.2181 9 17.6981 9 17.2088 9.11747C16.775 9.22162 16.3603 9.3934 15.9799 9.62651C15.5508 9.88944 15.1832 10.2571 14.4479 10.9924L10.9924 14.4479C10.2571 15.1832 9.88944 15.5508 9.62651 15.9799C9.3934 16.3603 9.22162 16.775 9.11747 17.2088C9 17.6981 9 18.2181 9 19.258V25.3144C9 26.3543 9 26.8743 9.11747 27.3636C9.22162 27.7974 9.3934 28.2121 9.62651 28.5925C9.88944 29.0215 10.2571 29.3892 10.9924 30.1245L27.2943 46.4264C29.8199 48.952 31.0826 50.2147 32.5388 50.6879C33.8196 51.104 35.1993 51.104 36.4802 50.6879C37.9363 50.2147 39.1991 48.952 41.7247 46.4264L46.4264 41.7247C48.952 39.1991 50.2147 37.9363 50.6879 36.4802C51.104 35.1993 51.104 33.8196 50.6879 32.5388C50.2147 31.0826 48.9519 29.8198 46.4264 27.2943ZM21.7547 18.5661C19.9937 18.5661 18.5661 19.9937 18.5661 21.7547C18.5661 23.5158 19.9937 24.9434 21.7547 24.9434C23.5158 24.9434 24.9434 23.5158 24.9434 21.7547C24.9434 19.9937 23.5158 18.5661 21.7547 18.5661Z"
            fill="white" />
          <path
            d="M30 60C19.499 60 14.2485 60 10.2377 57.9564C6.70964 56.1587 3.84126 53.2904 2.04363 49.7623C0 45.7515 0 40.501 0 30C0 19.4989 0 14.2485 2.04363 10.2376C3.84126 6.70964 6.70964 3.84119 10.2377 2.04359C14.2485 -1.43051e-05 19.499 -1.43051e-05 30 -1.43051e-05C40.5011 -1.43051e-05 45.7515 -1.43051e-05 49.7624 2.04359C53.2904 3.84119 56.1588 6.70964 57.9564 10.2376C60 14.2485 60 19.4989 60 30C60 40.501 60 45.7515 57.9564 49.7623C56.1588 53.2904 53.2904 56.1587 49.7624 57.9564C45.7515 60 40.5011 60 30 60Z"
            fill="url(#paint1_linear_3460_722431)" />
        </g>
      </g>
    </g>
    <defs>
      <linearGradient id="paint0_linear_3460_722431" x1="22.5" y1="-16" x2="54.5" y2="79"
        gradientUnits="userSpaceOnUse">
        <stop stop-color="#F03C3C" />
        <stop offset="1" stop-color="#E02D2D" />
      </linearGradient>
      <linearGradient id="paint1_linear_3460_722431" x1="2.54737" y1="10.8205" x2="57.962"
        y2="49.5351" gradientUnits="userSpaceOnUse">
        <stop stop-color="white" stop-opacity="0.3381" />
        <stop offset="0.5355" stop-color="white" stop-opacity="0" />
        <stop offset="1" stop-color="white" stop-opacity="0" />
      </linearGradient>
      <clipPath id="clip0_3460_722431">
        <rect width="60" height="60" fill="white" />
      </clipPath>
      <clipPath id="clip1_3460_722431">
        <rect width="60" height="60" fill="white" />
      </clipPath>
    </defs>
  </symbol>
  <symbol id="icon-bag" viewBox="0 0 60 60" fill="none" xmlns="http://www.w3.org/2000/svg">
    <g clip-path="url(#clip0_3460_722449)">
      <g clip-path="url(#clip1_3460_722449)">
        <mask id="mask0_3460_722449" style="mask-type:alpha" maskUnits="userSpaceOnUse" x="0" y="0"
          width="60" height="60">
          <path
            d="M0 30C0 19.499 0 14.2485 2.04363 10.2377C3.84126 6.70963 6.70963 3.84126 10.2377 2.04363C14.2485 0 19.499 0 30 0C40.501 0 45.7515 0 49.7624 2.04363C53.2904 3.84126 56.1588 6.70963 57.9564 10.2377C60 14.2485 60 19.499 60 30C60 40.501 60 45.7515 57.9564 49.7624C56.1588 53.2904 53.2904 56.1588 49.7624 57.9564C45.7515 60 40.501 60 30 60C19.499 60 14.2485 60 10.2377 57.9564C6.70963 56.1588 3.84126 53.2904 2.04363 49.7624C0 45.7515 0 40.501 0 30Z"
            fill="#FF3333" />
        </mask>
        <g mask="url(#mask0_3460_722449)">
          <path
            d="M0 30C0 19.499 0 14.2485 2.04363 10.2377C3.84126 6.70963 6.70963 3.84126 10.2377 2.04363C14.2485 0 19.499 0 30 0C40.501 0 45.7515 0 49.7624 2.04363C53.2904 3.84126 56.1588 6.70963 57.9564 10.2377C60 14.2485 60 19.499 60 30C60 40.501 60 45.7515 57.9564 49.7624C56.1588 53.2904 53.2904 56.1588 49.7624 57.9564C45.7515 60 40.501 60 30 60C19.499 60 14.2485 60 10.2377 57.9564C6.70963 56.1588 3.84126 53.2904 2.04363 49.7624C0 45.7515 0 40.501 0 30Z"
            fill="url(#paint0_linear_3460_722449)" />
          <path fill-rule="evenodd" clip-rule="evenodd"
            d="M53.6581 47.4463L51.8316 25.5277C51.494 21.4764 51.3252 19.4507 50.428 17.9175C49.638 16.5674 48.4615 15.4849 47.0505 14.8097C45.4481 14.043 43.4154 14.043 39.3499 14.043H20.6494C16.584 14.043 14.5513 14.043 12.9489 14.8097C11.5378 15.4849 10.3614 16.5674 9.57136 17.9175C8.67419 19.4507 8.50538 21.4764 8.16777 25.5277L6.34122 47.4463C5.94883 52.155 5.75264 54.5093 6.54858 56.3254C7.24789 57.9211 8.45952 59.2379 9.99163 60.0674C11.7354 61.0114 14.0979 61.0114 18.8229 61.0114H41.1765C45.9015 61.0114 48.2639 61.0114 50.0077 60.0674C51.5398 59.2379 52.7515 57.9211 53.4508 56.3254C54.2467 54.5093 54.0505 52.1549 53.6581 47.4463ZM22.1716 27.0896C22.1716 25.6485 21.0034 24.4803 19.5622 24.4803C18.1211 24.4803 16.9529 25.6485 16.9529 27.0896C16.9529 30.5499 18.3275 33.8684 20.7742 36.3151C23.2209 38.7618 26.5394 40.1364 29.9997 40.1364C33.4599 40.1364 36.7784 38.7618 39.2251 36.3151C41.6719 33.8684 43.0464 30.5499 43.0464 27.0896C43.0464 25.6485 41.8782 24.4803 40.4371 24.4803C38.996 24.4803 37.8277 25.6485 37.8277 27.0896C37.8277 29.1658 37.003 31.1569 35.5349 32.6249C34.0669 34.093 32.0758 34.9177 29.9997 34.9177C27.9235 34.9177 25.9324 34.093 24.4644 32.6249C22.9963 31.1569 22.1716 29.1658 22.1716 27.0896Z"
            fill="white" />
          <path
            d="M30 60C19.499 60 14.2485 60 10.2377 57.9564C6.70964 56.1587 3.84126 53.2904 2.04363 49.7623C0 45.7515 0 40.501 0 30C0 19.4989 0 14.2485 2.04363 10.2376C3.84126 6.70964 6.70964 3.84119 10.2377 2.04359C14.2485 -1.43051e-05 19.499 -1.43051e-05 30 -1.43051e-05C40.5011 -1.43051e-05 45.7515 -1.43051e-05 49.7624 2.04359C53.2904 3.84119 56.1588 6.70964 57.9564 10.2376C60 14.2485 60 19.4989 60 30C60 40.501 60 45.7515 57.9564 49.7623C56.1588 53.2904 53.2904 56.1587 49.7624 57.9564C45.7515 60 40.5011 60 30 60Z"
            fill="url(#paint1_linear_3460_722449)" />
        </g>
      </g>
    </g>
    <defs>
      <linearGradient id="paint0_linear_3460_722449" x1="51.5" y1="-15.5" x2="7.5" y2="71.5"
        gradientUnits="userSpaceOnUse">
        <stop stop-color="#39DBDB" />
        <stop offset="1" stop-color="#45DCAF" />
      </linearGradient>
      <linearGradient id="paint1_linear_3460_722449" x1="2.54737" y1="10.8205" x2="57.962"
        y2="49.5351" gradientUnits="userSpaceOnUse">
        <stop stop-color="white" stop-opacity="0.3381" />
        <stop offset="0.5355" stop-color="white" stop-opacity="0" />
        <stop offset="1" stop-color="white" stop-opacity="0" />
      </linearGradient>
      <clipPath id="clip0_3460_722449">
        <rect width="60" height="60" fill="white" />
      </clipPath>
      <clipPath id="clip1_3460_722449">
        <rect width="60" height="60" fill="white" />
      </clipPath>
    </defs>
  </symbol>
  <symbol id="icon-union" viewBox="0 0 17 15" fill="none" xmlns="http://www.w3.org/2000/svg">
    <path d="M4.98445 7.24002L5.56906 3.44008H11.4309L12.0155 7.24002H4.98445Z" fill="white" />
    <path d="M13.1303 6.98911L12.5465 3.19408L14.3895 2.2726L16.5726 5.47452L13.1303 6.98911Z"
      fill="white" />
    <path
      d="M3.69463 1.54011L5.2146 0.780119H11.7854L13.3054 1.54011L11.7854 2.3001H5.2146L3.69463 1.54011Z"
      fill="white" />
    <path d="M0.427409 5.47452L2.61053 2.2726L4.45351 3.19409L3.86966 6.98911L0.427409 5.47452Z"
      fill="white" />
    <path d="M5.82863 11.9184L1.725 7.29091L3.90778 8.25133L5.82863 11.9184Z" fill="white" />
    <path d="M8.5 14.5615L5.26208 8.38H11.7379L8.5 14.5615Z" fill="white" />
    <path d="M11.1714 11.9184L13.0922 8.25133L15.275 7.29091L11.1714 11.9184Z" fill="white" />
  </symbol>
  <symbol id="icon-analytics" viewBox="0 0 38 35" fill="none" xmlns="http://www.w3.org/2000/svg">
    <g clip-path="url(#clip0_3460_722583)">
      <g clip-path="url(#clip1_3460_722583)">
        <g clip-path="url(#clip2_3460_722583)">
          <path
            d="M30.7491 15.7342C29.8611 8.0535 22.9149 2.54692 15.2342 3.4349C7.55355 4.32288 2.047 11.2692 2.93498 18.9498C3.82296 26.6305 10.7692 32.1371 18.4499 31.2491C26.1305 30.3612 31.6371 23.4149 30.7491 15.7342Z"
            fill="#A8E545" fill-opacity="0.15" />
          <path
            d="M32.8047 26.5411C33.5187 26.4586 34.1644 26.9706 34.2469 27.6846C34.3294 28.3986 33.8174 29.0443 33.1034 29.1268L9.83198 31.8153C9.11795 31.8978 8.47225 31.3858 8.38976 30.6718C8.30727 29.9578 8.81923 29.3121 9.53326 29.2296L32.8047 26.5411ZM29.2714 7.2976C29.9855 7.21511 30.6312 7.72708 30.7136 8.4411L31.4604 14.9054C31.5429 15.6194 31.031 16.2651 30.317 16.3476C29.6029 16.4301 28.9572 15.9181 28.8747 15.2041L28.4885 11.8608L21.2926 20.9368C20.8804 21.4567 20.1512 21.5772 19.5985 21.2415L19.4642 21.148L16.1574 18.5261L11.2485 24.7174C10.8019 25.2806 9.98332 25.3752 9.4201 24.9286C8.85688 24.482 8.76231 23.6634 9.20887 23.1002L14.9264 15.8891C15.3729 15.3259 16.1915 15.2313 16.7547 15.6779L20.0616 18.2998L26.4466 10.2442L23.1059 10.6301C22.4428 10.7067 21.8387 10.2708 21.6898 9.63639L21.6636 9.48662C21.5812 8.7726 22.0931 8.12689 22.8071 8.0444L29.2714 7.2976Z"
            fill="#ABE705" />
        </g>
      </g>
    </g>
    <defs>
      <clipPath id="clip0_3460_722583">
        <rect width="33.51" height="30.008" fill="white"
          transform="translate(0.764648 4.35522) rotate(-6.59481)" />
      </clipPath>
      <clipPath id="clip1_3460_722583">
        <rect width="33" height="30.008" fill="white"
          transform="translate(0.764648 4.35522) rotate(-6.59481)" />
      </clipPath>
      <clipPath id="clip2_3460_722583">
        <rect width="33" height="30" fill="white"
          transform="translate(0.764648 4.35522) rotate(-6.59481)" />
      </clipPath>
    </defs>
  </symbol>

  <symbol id="icon-for-card" viewBox="0 0 50 34" fill="none" xmlns="http://www.w3.org/2000/svg">
    <path
      d="M15.9748 12.3497L22.099 21.3602M32.7825 26.4286C34.61 23.5178 35.5721 20.216 35.5721 16.8549C35.5721 13.4939 34.61 10.192 32.7825 7.28125M27.4788 23.6128C28.7688 21.5582 29.448 19.2275 29.448 16.8549C29.448 14.4824 28.7688 12.1517 27.4788 10.097M22.0111 21.3602C22.8711 19.9904 23.3238 18.4366 23.3238 16.8549C23.3238 15.2733 22.8711 13.7194 22.0111 12.3497M16.0628 21.3602C15.2028 19.9904 14.75 18.4366 14.75 16.8549C14.75 15.2733 15.2028 13.7194 16.0628 12.3497"
      stroke="white" stroke-width="2.25213" stroke-linecap="round" />
    <path
      d="M24.9141 1.36426C31.6135 1.36426 37.6402 3.15522 41.9668 6.00684C46.3003 8.86298 48.8428 12.7136 48.8428 16.8477C48.8427 20.9816 46.3001 24.8314 41.9668 27.6875C37.6402 30.5392 31.6135 32.3311 24.9141 32.3311C18.2146 32.331 12.188 30.5391 7.86133 27.6875C3.52807 24.8314 0.985416 20.9816 0.985352 16.8477C0.985352 12.7136 3.52787 8.86298 7.86133 6.00684C12.188 3.15521 18.2147 1.36426 24.9141 1.36426Z"
      stroke="white" stroke-width="1.6891" />
  </symbol>
  <symbol id="icon-plus" viewBox="0 0 17 16" fill="none" xmlns="http://www.w3.org/2000/svg">
    <path fill-rule="evenodd" clip-rule="evenodd"
      d="M10.5969 4.20181C9.77086 4.81585 8.81645 5.39391 7.82981 5.68057C6.84317 5.96723 5.72744 5.99062 4.70082 5.91483C5.31514 6.74084 5.89351 7.69525 6.18043 8.68182C6.46722 9.66794 6.49171 10.7822 6.4171 11.8074C7.24255 11.1948 8.19628 10.6182 9.18247 10.3316C10.1687 10.0451 11.283 10.0209 12.3084 10.0957C11.6956 9.27022 11.1186 8.31651 10.8319 7.33039C10.5449 6.34382 10.5213 5.22826 10.5969 4.20181ZM11.0172 1.38789C9.85358 2.47596 8.49528 3.52668 7.30406 3.87277C6.11284 4.21887 4.40263 4.05966 2.83677 3.76459C2.67716 3.73451 2.51905 3.70302 2.36314 3.67051C2.01489 3.5979 1.67762 3.52019 1.35917 3.44175C1.2675 3.41917 1.17738 3.39653 1.08902 3.37393C0.668135 3.26631 0.303207 3.93034 0.619685 4.22794C0.686132 4.29042 0.753551 4.35436 0.821755 4.41964C1.05868 4.64642 1.30508 4.88947 1.55307 5.14453C1.66409 5.25872 1.77543 5.37531 1.88638 5.49392C2.97489 6.6576 4.02608 8.01597 4.37249 9.2071C4.71884 10.398 4.56211 12.1039 4.26973 13.6651C4.24006 13.8235 4.20899 13.9804 4.17692 14.1352C4.10479 14.4831 4.02754 14.8201 3.94953 15.1382C3.92697 15.2302 3.90434 15.3206 3.88175 15.4093C3.77462 15.8299 4.43794 16.1944 4.73558 15.8785C4.79832 15.8119 4.86254 15.7443 4.92812 15.676C5.15482 15.4396 5.39785 15.1937 5.65292 14.9463C5.76636 14.8363 5.88218 14.726 6 14.616C7.16118 13.5323 8.51722 12.4855 9.70822 12.1394C10.8992 11.7934 12.6054 11.9505 14.1669 12.2432C14.3253 12.2729 14.4823 12.304 14.637 12.3361C14.9851 12.4083 15.3221 12.4856 15.6402 12.5637C15.7322 12.5862 15.8227 12.6089 15.9114 12.6315C16.3321 12.7387 16.6965 12.0755 16.3805 11.7779C16.3139 11.7151 16.2463 11.6509 16.1779 11.5853C15.9414 11.3586 15.6955 11.1156 15.448 10.8605C15.3379 10.747 15.2275 10.6312 15.1175 10.5134C14.0334 9.3521 12.9861 7.99602 12.6398 6.80511C12.2934 5.61398 12.4522 3.90408 12.747 2.33853C12.777 2.17895 12.8085 2.02088 12.8409 1.86501C12.9135 1.51682 12.9911 1.17962 13.0695 0.861237C13.0921 0.769581 13.1147 0.679484 13.1373 0.591133C13.2448 0.170335 12.5806 -0.194687 12.283 0.121677C12.2206 0.188102 12.1566 0.255498 12.0914 0.32368C11.8646 0.560518 11.6216 0.806825 11.3665 1.05472C11.2523 1.16569 11.1358 1.27698 11.0172 1.38789Z"
      fill="white" />
    <path
      d="M7.82981 5.68057C8.81645 5.39391 9.77086 4.81585 10.5969 4.20181C10.5213 5.22826 10.5449 6.34382 10.8319 7.33039C11.1186 8.31651 11.6956 9.27022 12.3084 10.0957C11.283 10.0209 10.1687 10.0451 9.18247 10.3316C8.19628 10.6182 7.24255 11.1948 6.4171 11.8074C6.49171 10.7822 6.46722 9.66794 6.18043 8.68182C5.89351 7.69525 5.31514 6.74084 4.70082 5.91483C5.72744 5.99062 6.84317 5.96723 7.82981 5.68057Z"
      fill="white" />
  </symbol>
  <symbol id="icon-check" viewBox="0 0 12 9" fill="none" xmlns="http://www.w3.org/2000/svg">
    <path
      d="M11.443 1.84431C11.8652 1.42289 11.8657 0.739076 11.4443 0.316959C11.0229 -0.105157 10.3391 -0.105725 9.91696 0.315691L4.30943 5.91392L1.84304 3.45163C1.42092 3.03021 0.737107 3.03078 0.315691 3.4529C-0.105725 3.87501 -0.105157 4.55883 0.316959 4.98025L3.54638 8.20431C3.968 8.62523 4.65085 8.62523 5.07247 8.20431L11.443 1.84431Z"
      fill="white" />
  </symbol>
  <symbol id="icon-green-logo" viewBox="0 0 108 109" fill="none" xmlns="http://www.w3.org/2000/svg">
    <rect y="0.5" width="108" height="108" rx="28.1739" fill="#BAFC00" />
    <path d="M89.2176 27.1675H38.3228V36.8491H68.0115V85.257H78.6146V36.8491H89.2176V27.1675Z"
      fill="#131314" />
    <path
      d="M23.4785 68.5832V26.0918H34.4816V66.2419C34.2636 71.3297 38.2704 75.5754 43.2901 75.5754C48.1594 75.5754 52.1068 71.5706 52.1068 66.6304V40.0763H64.8306V68.5832C64.8306 80.1683 54.7091 85.257 43.2901 85.257C31.871 85.257 23.4785 80.1683 23.4785 68.5832Z"
      fill="#131314" />
  </symbol>
  <symbol id="icon-tg" viewBox="0 0 20 21" fill="none" xmlns="http://www.w3.org/2000/svg">
    <path fill-rule="evenodd" clip-rule="evenodd"
      d="M10 20.0898C15.5228 20.0898 20 15.6126 20 10.0898C20 4.56699 15.5228 0.0898438 10 0.0898438C4.47715 0.0898438 0 4.56699 0 10.0898C0 15.6126 4.47715 20.0898 10 20.0898ZM14.0437 5.0694C14.5582 4.84351 15.1084 5.30023 15.0188 5.87888L13.6935 14.4402C13.613 14.9606 13.0589 15.2319 12.6283 14.9618L8.78847 12.5539C8.3883 12.303 8.32226 11.7217 8.65495 11.3787L12.0845 7.84284C12.2073 7.71629 12.0507 7.512 11.907 7.61127L7.1425 10.9029C6.7903 11.1462 6.35356 11.2127 5.95023 11.0842L3.83696 10.4112C3.45429 10.2894 3.4273 9.73056 3.79626 9.56857L14.0437 5.0694Z"
      fill="currentColor" />
  </symbol>
  <symbol id="icon-vk" viewBox="0 0 20 21" fill="none" xmlns="http://www.w3.org/2000/svg">
    <path fill-rule="evenodd" clip-rule="evenodd"
      d="M1.406 1.49584C0 2.90184 0 5.16484 0 9.68984V10.4898C0 15.0148 0 17.2778 1.406 18.6838C2.812 20.0898 5.075 20.0898 9.6 20.0898H10.4C14.925 20.0898 17.188 20.0898 18.594 18.6838C20 17.2778 20 15.0148 20 10.4898V9.68984C20 5.16484 20 2.90184 18.594 1.49584C17.188 0.0898438 14.925 0.0898438 10.4 0.0898438H9.6C5.075 0.0898438 2.812 0.0898438 1.406 1.49584ZM3.375 6.17284C3.483 11.3728 6.083 14.4978 10.642 14.4978H10.9V11.5228C12.575 11.6898 13.842 12.9148 14.35 14.4978H16.717C16.067 12.1318 14.358 10.8228 13.292 10.3228C14.358 9.70684 15.858 8.20684 16.217 6.17284H14.067C13.6 7.82284 12.217 9.32284 10.9 9.46484V6.17284H8.75V11.9398C7.417 11.6068 5.733 9.98984 5.658 6.17284H3.375Z"
      fill="currentColor" />
  </symbol>
  <symbol id="icon-dzen" viewBox="0 0 20 21" fill="none" xmlns="http://www.w3.org/2000/svg">
    <path fill-rule="evenodd" clip-rule="evenodd"
      d="M19.998 9.8848C19.89 4.5878 15.667 0.301797 10.395 0.0977969C10.442 4.2068 10.712 6.5078 12.243 8.0378C13.751 9.5478 16.005 9.8318 19.998 9.8848ZM9.79795 0.0917969C4.43495 0.197797 0.107953 4.5248 0.00195312 9.8878C4.11495 9.8398 6.41695 9.5708 7.94895 8.0388C9.48095 6.5068 9.74995 4.2048 9.79795 0.0917969ZM0.00795313 10.4848C0.211953 15.7568 4.49795 19.9818 9.79495 20.0878C9.74195 16.0948 9.45695 13.8408 7.94895 12.3328C6.41695 10.8018 4.11695 10.5328 0.00795313 10.4848ZM10.398 20.0818C12.9106 19.9817 15.2933 18.9386 17.0713 17.1604C18.8493 15.3822 19.8921 12.9994 19.992 10.4868C16.003 10.5408 13.751 10.8258 12.243 12.3328C10.736 13.8408 10.451 16.0928 10.397 20.0828L10.398 20.0818Z"
      fill="currentColor" />
  </symbol>

</svg>
